<?xml version="1.0" encoding="UTF-8" standalone="no"?>
<!-- Created with Inkscape (http://www.inkscape.org/) -->

<svg
   xmlns:dc="http://purl.org/dc/elements/1.1/"
   xmlns:cc="http://creativecommons.org/ns#"
   xmlns:rdf="http://www.w3.org/1999/02/22-rdf-syntax-ns#"
   xmlns:svg="http://www.w3.org/2000/svg"
   xmlns="http://www.w3.org/2000/svg"
   xmlns:sodipodi="http://sodipodi.sourceforge.net/DTD/sodipodi-0.dtd"
   xmlns:inkscape="http://www.inkscape.org/namespaces/inkscape"
   width="256"
   height="256"
   id="svg2"
   sodipodi:version="0.32"
   inkscape:version="0.47 r22583"
   version="1.0"
   sodipodi:docname="include.svg"
   inkscape:output_extension="org.inkscape.output.svg.inkscape">
  <defs
     id="defs4">
    <inkscape:perspective
       sodipodi:type="inkscape:persp3d"
       inkscape:vp_x="0 : 526.18109 : 1"
       inkscape:vp_y="0 : 1000 : 0"
       inkscape:vp_z="744.09448 : 526.18109 : 1"
       inkscape:persp3d-origin="372.04724 : 350.78739 : 1"
       id="perspective10" />
    <inkscape:perspective
       id="perspective3691"
       inkscape:persp3d-origin="0.5 : 0.33333333 : 1"
       inkscape:vp_z="1 : 0.5 : 1"
       inkscape:vp_y="0 : 1000 : 0"
       inkscape:vp_x="0 : 0.5 : 1"
       sodipodi:type="inkscape:persp3d" />
    <inkscape:perspective
       id="perspective3734"
       inkscape:persp3d-origin="0.5 : 0.33333333 : 1"
       inkscape:vp_z="1 : 0.5 : 1"
       inkscape:vp_y="0 : 1000 : 0"
       inkscape:vp_x="0 : 0.5 : 1"
       sodipodi:type="inkscape:persp3d" />
    <inkscape:perspective
       id="perspective3831"
       inkscape:persp3d-origin="0.5 : 0.33333333 : 1"
       inkscape:vp_z="1 : 0.5 : 1"
       inkscape:vp_y="0 : 1000 : 0"
       inkscape:vp_x="0 : 0.5 : 1"
       sodipodi:type="inkscape:persp3d" />
    <filter
       color-interpolation-filters="sRGB"
       inkscape:collect="always"
       id="filter6809"
       x="-0.10300414"
       width="1.2060083"
       y="-0.064288795"
       height="1.1285776">
      <feGaussianBlur
         inkscape:collect="always"
         stdDeviation="10.293708"
         id="feGaussianBlur6811" />
    </filter>
    <filter
       color-interpolation-filters="sRGB"
       inkscape:collect="always"
       id="filter6725">
      <feGaussianBlur
         inkscape:collect="always"
         stdDeviation="10.829078"
         id="feGaussianBlur6727" />
    </filter>
    <filter
       color-interpolation-filters="sRGB"
       inkscape:collect="always"
       id="filter7058"
       x="-0.048387717"
       width="1.0967754"
       y="-0.10871763"
       height="1.2174352">
      <feGaussianBlur
         inkscape:collect="always"
         stdDeviation="1.8813246"
         id="feGaussianBlur7060" />
    </filter>
    <filter
       color-interpolation-filters="sRGB"
       inkscape:collect="always"
       id="filter7062"
       x="-0.048860457"
       width="1.0977209"
       y="-0.10172857"
       height="1.2034571">
      <feGaussianBlur
         inkscape:collect="always"
         stdDeviation="1.8813246"
         id="feGaussianBlur7064" />
    </filter>
    <filter
       color-interpolation-filters="sRGB"
       inkscape:collect="always"
       id="filter7054"
       x="-0.066042237"
       width="1.1320845"
       y="-0.12100657"
       height="1.2420131">
      <feGaussianBlur
         inkscape:collect="always"
         stdDeviation="1.8813246"
         id="feGaussianBlur7056" />
    </filter>
  </defs>
  <sodipodi:namedview
     id="base"
     pagecolor="#ffffff"
     bordercolor="#666666"
     borderopacity="1.0"
     gridtolerance="10000"
     guidetolerance="10"
     objecttolerance="10"
     inkscape:pageopacity="0.0"
     inkscape:pageshadow="2"
     inkscape:zoom="2.2762951"
     inkscape:cx="128"
     inkscape:cy="128.01276"
     inkscape:document-units="px"
     inkscape:current-layer="layer1"
     showgrid="true"
     showborder="false"
     inkscape:window-width="1440"
     inkscape:window-height="848"
     inkscape:window-x="-8"
     inkscape:window-y="-8"
     inkscape:snap-to-guides="true"
     showguides="true"
     inkscape:guide-bbox="true"
     inkscape:window-maximized="1"
     inkscape:snap-grids="false">
    <inkscape:grid
       type="xygrid"
       id="grid3604"
       empspacing="5"
       visible="true"
       enabled="true"
       snapvisiblegridlinesonly="true"
       spacingx="16px"
       spacingy="16px"
       originy="0px"
       originx="0px" />
  </sodipodi:namedview>
  <metadata
     id="metadata7">
    <rdf:RDF>
      <cc:Work
         rdf:about="">
        <dc:format>image/svg+xml</dc:format>
        <dc:type
           rdf:resource="http://purl.org/dc/dcmitype/StillImage" />
        <dc:title />
      </cc:Work>
    </rdf:RDF>
  </metadata>
  <g
     inkscape:label="Layer 1"
     inkscape:groupmode="layer"
     id="layer1">
    <g
       id="g4172"
       transform="translate(4,-4)">
      <path
         sodipodi:nodetypes="ccccccc"
         id="path3612"
         d="m 37,252 c 58.000001,0 116,0 174,0 0,-64.24742 0,-128.49485 0,-192.742264 l -46.59595,-0.03155 -0.041,-47.201498 c -42.44437,0 -84.888736,0 -127.333105,0 C 37.019917,92.016462 37.009959,172.00823 37,252 z"
         style="fill:none;stroke:#000000;stroke-width:16;stroke-linecap:round;stroke-linejoin:round;stroke-miterlimit:4;stroke-opacity:1;stroke-dasharray:none" />
      <path
         sodipodi:nodetypes="cc"
         id="path3659"
         d="m 164.19338,12 46.62858,46.780693"
         style="fill:none;stroke:#000000;stroke-width:16;stroke-linecap:round;stroke-linejoin:round;stroke-miterlimit:4;stroke-opacity:1;stroke-dasharray:none" />
    </g>
    <g
       id="layer1-1"
       style="stroke:#000000;stroke-width:16.80000114;stroke-linejoin:round;stroke-miterlimit:4;stroke-opacity:1;stroke-dasharray:none"
       transform="matrix(0.23809522,0,0,0.23809522,90.705493,53.928076)">
      <path
         d="M 127.99952,2.0004733 C 253.99953,254.00049 253.99953,254.00049 253.99953,254.00049 l -252.0000182,0 L 127.99952,2.0004733 z"
         id="path4598"
         style="fill:#0000ff;fill-opacity:1;fill-rule:evenodd;stroke:#000000;stroke-width:16.80000114;stroke-linecap:butt;stroke-linejoin:round;stroke-miterlimit:4;stroke-opacity:1;stroke-dasharray:none" />
    </g>
    <g
       id="layer1-7"
       style="stroke:#000000;stroke-width:16.80000114;stroke-miterlimit:4;stroke-opacity:1;stroke-dasharray:none"
       transform="matrix(0.23809522,0,0,0.23809522,135.70027,141.11943)">
      <path
         d="M 128,1.9999925 254.00001,128 128,254.00001 1.9999925,128 128,1.9999925 z"
         id="path4620"
         style="fill:#ff0000;fill-opacity:1;fill-rule:evenodd;stroke:#000000;stroke-width:16.80000114;stroke-linecap:butt;stroke-linejoin:round;stroke-miterlimit:4;stroke-opacity:1;stroke-dasharray:none" />
    </g>
    <g
       id="g7078"
       transform="matrix(0.09364388,0,0,0.09364388,103.32357,140.65078)">
      <path
         sodipodi:type="inkscape:offset"
         inkscape:radius="-19.451088"
         inkscape:original="M -296.03125 155.34375 C -299.80222 155.156 -303.66117 155.28498 -307.5625 155.71875 C -342.12553 159.56163 -367.42978 187.27708 -364.0625 217.5625 C -363.15197 225.75192 -360.23385 233.27071 -355.78125 239.84375 C -357.56086 240.91463 -359.26194 242.09826 -360.90625 243.3125 C -373.1688 235.23406 -388.94623 231.17683 -405.625 233.03125 C -440.18803 236.87412 -465.49228 264.58958 -462.125 294.875 C -459.36143 319.73084 -438.13094 338.6111 -411.5 342.46875 C -412.13539 346.03261 -412.61567 349.62118 -412.9375 353.25 C -419.21924 352.19497 -425.81718 351.96878 -432.5625 352.71875 C -467.12551 356.56162 -492.42978 384.27709 -489.0625 414.5625 C -485.81695 443.7531 -457.1142 464.74266 -424.09375 462.78125 C -424.50661 466.37497 -424.53755 470.03951 -424.125 473.75 C -420.75774 504.03541 -389.96927 525.49913 -355.40625 521.65625 C -334.50744 519.33262 -316.99732 508.28424 -307.15625 493.21875 C -286.02 499.21015 -263.00594 501.29754 -239.25 498.65625 C -210.77041 495.48976 -184.76674 485.91497 -162.96875 471.78125 C -154.8557 476.09728 -145.04699 478.14487 -134.75 477 C -117.12481 475.04035 -102.8681 464.33789 -97.125 450.5 C -85.320079 460.36784 -68.697486 465.62741 -50.96875 463.65625 C -19.148827 460.11835 4.162527 434.63181 1.0625 406.75 C -1.1916938 386.47563 -16.795573 370.47479 -37.375 364.625 C -32.267282 355.9925 -29.829281 346.0922 -30.96875 335.84375 C -32.329978 323.60077 -38.560291 312.91934 -47.8125 305.09375 C -40.545369 294.8617 -36.866857 282.59614 -38.28125 269.875 C -41.266942 243.0215 -65.819716 223.11488 -95.4375 221.625 C -94.893551 217.88822 -94.818385 214.06948 -95.25 210.1875 C -98.350028 182.30568 -126.68008 162.52462 -158.5 166.0625 C -173.66034 167.74809 -186.88928 174.4301 -196.25 183.96875 C -200.96898 183.44196 -205.87188 183.3847 -210.84375 183.9375 C -222.08746 185.18762 -232.26505 189.22313 -240.59375 195.09375 C -247.28089 172.63939 -269.63448 156.65803 -296.03125 155.34375 z "
         style="fill:#376e04;fill-opacity:1;fill-rule:nonzero;stroke:none;stroke-width:0.5;marker:none;visibility:visible;display:inline;overflow:visible;enable-background:accumulate"
         id="path7072"
         d="m -297,174.78125 c -2.67085,-0.13298 -5.48412,-0.0437 -8.40625,0.28125 -25.39088,2.82308 -41.35311,21.99041 -39.3125,40.34375 0.55066,4.95267 2.2283,9.39347 5.03125,13.53125 A 19.453033,19.453033 0 0 1 -345.75,256.5 c -1.0462,0.62955 -2.24721,1.4744 -3.59375,2.46875 a 19.453033,19.453033 0 0 1 -22.25,0.59375 c -8.3603,-5.50768 -19.63199,-8.54873 -31.875,-7.1875 -25.39087,2.82307 -41.35311,21.99041 -39.3125,40.34375 1.67412,15.05721 14.89141,27.72295 34.0625,30.5 a 19.453033,19.453033 0 0 1 16.375,22.65625 c -0.53666,3.01006 -0.94767,6.03713 -1.21875,9.09375 a 19.453033,19.453033 0 0 1 -22.59375,17.46875 c -4.53554,-0.76175 -9.31608,-0.92357 -14.25,-0.375 -25.39084,2.82307 -41.35311,21.99043 -39.3125,40.34375 1.96692,17.69054 20.31365,32.40356 44.46875,30.96875 A 19.453033,19.453033 0 0 1 -404.78125,465 c -0.25432,2.21367 -0.24532,4.38733 0,6.59375 2.03984,18.34649 21.82233,33.54244 47.21875,30.71875 15.35458,-1.7072 27.68001,-9.85225 34.125,-19.71875 A 19.453033,19.453033 0 0 1 -301.84375,474.5 c 18.71244,5.30433 39.17142,7.17696 60.4375,4.8125 25.49198,-2.83431 48.60608,-11.37013 67.84375,-23.84375 a 19.453033,19.453033 0 0 1 19.71875,-0.875 c 4.62604,2.46099 10.52036,3.77599 16.9375,3.0625 11.03978,-1.22745 19.07697,-8.0338 21.8125,-14.625 a 19.453033,19.453033 0 0 1 30.4375,-7.46875 c 7.520616,6.28655 18.906423,10.15368 31.53125,8.75 22.660165,-2.51947 36.616498,-19.46206 34.84375,-35.40625 -1.28902,-11.59353 -10.312579,-21.55631 -24.40625,-25.5625 a 19.453033,19.453033 0 0 1 -11.4375,-28.625 c 3.170094,-5.35774 4.46322,-10.86614 3.8125,-16.71875 -0.778227,-6.99943 -4.186295,-13.09236 -10.0625,-18.0625 a 19.453033,19.453033 0 0 1 -3.28125,-26.09375 c 4.812143,-6.77545 6.884606,-14.13736 6.03125,-21.8125 -1.808181,-16.26289 -17.307388,-29.88854 -38.78125,-30.96875 a 19.453033,19.453033 0 0 1 -18.28125,-22.25 c 0.30864,-2.12026 0.34315,-4.22565 0.0937,-6.46875 -1.77348,-15.95076 -19.10435,-29.45534 -41.75,-26.9375 -10.78437,1.19905 -19.90663,5.94647 -26.03125,12.1875 a 19.453033,19.453033 0 0 1 -16.03125,5.71875 c -3.39712,-0.37923 -6.85182,-0.41255 -10.28125,-0.0312 -7.95576,0.88455 -15.02696,3.72883 -20.6875,7.71875 a 19.453033,19.453033 0 0 1 -29.875,-10.34375 c -4.02333,-13.5097 -18.63024,-24.92304 -37.75,-25.875 z"
         transform="matrix(0.9291665,0,0,0.957308,10.71578,-86.540763)" />
      <path
         sodipodi:nodetypes="cccccccccccccccc"
         id="path6729"
         d="m -342.97308,317.15509 c -24.78255,31.0552 79.0323,64.37939 82,104 5.51985,73.6935 -80,200 -122,214 -42,14 76.4517,-13.59639 108,-6 16.20771,3.90259 31.89707,32.31457 48,28 14.01762,-3.75584 10.28762,-37.24913 24,-42 25.68794,-8.89999 70,42 84,34 14,-8 -96,-198 -80,-212 16,-14 113.999997,-102 98,-154 -12,-9 -52.64363,124.20481 -92,108 5.27757,-50.1203 41,-111 10,-132 -12,-4 1.43152,124.01125 -38,126 -19.17718,-8.87277 18,-137 -54,-130 -14.35453,1.39558 50.97513,106.30752 25,123 -23.13711,14.86867 -36.51609,-28.74272 -58.8682,-44.76727 -9.21511,-6.60644 -27.05937,-25.09524 -34.1318,-16.23273 z"
         style="fill:#8f5902;fill-opacity:1;fill-rule:nonzero;stroke:none;stroke-width:0.5;marker:none;visibility:visible;display:inline;overflow:visible;enable-background:accumulate" />
      <path
         transform="translate(-111,-117)"
         d="m -154.5625,380.1875 c 0.47618,1.60461 0.99702,3.33616 1.71875,5.34375 3.51206,9.76927 9.52905,23.59665 15.25,38.03125 5.32764,13.44224 10.32508,27.33254 13,40.03125 -0.0112,-9.67492 0.003,-19.75537 -0.53125,-29.875 -0.79932,-15.12924 -3.14749,-29.55186 -8.03125,-39.03125 -4.59541,-8.91969 -10.03433,-13.75291 -21.40625,-14.5 z m 86.78125,19.84375 c -0.361926,4.82605 -0.732006,9.75062 -1.125,15.53125 0.893816,-5.7754 1.393022,-11.11723 1.125,-15.53125 z m 68.84375,26.625 c -5.2585097,9.92373 -10.8834972,21.13866 -17.75,33.625 -2.10235,3.823 -4.25297,7.64875 -6.46875,11.40625 7.875836,-10.81686 14.8046121,-21.83458 19.5625,-32.28125 2.0168151,-4.42822 3.47274291,-8.65756 4.65625,-12.75 z m -225.78125,13.75 c -0.72616,1.26848 -1.01432,2.27022 -0.875,3.4375 0.19273,1.61478 1.25199,4.20957 3.78125,7.46875 5.05851,6.51836 15.36352,14.77383 26.875,23.28125 7.14615,5.28127 14.72227,10.76756 21.96875,16.5 -0.57869,-0.6825 -1.2442,-1.27347 -1.8125,-1.96875 -9.71408,-11.88458 -18.72249,-26.08699 -27.40625,-32.3125 -5.61784,-4.02751 -12.04631,-10.04616 -17.59375,-13.75 -2.1002,-1.40223 -3.79056,-2.20291 -4.9375,-2.65625 z m 100.9375,47.71875 c -1.36229,5.29181 -4.23735,10.49746 -9.25,13.71875 -7.83356,5.0341 -17.43041,5.47314 -24.59375,2.15625 -0.46592,-0.21574 -0.86327,-0.51558 -1.3125,-0.75 9.85664,9.50164 18.10768,20.0541 19.09375,33.21875 3.05187,40.74442 -17.9892,91.36936 -44.5,134.84375 -13.2554,21.73719 -27.98544,41.53793 -42.34375,57.0625 -4.09821,4.43109 -8.11574,8.42874 -12.09375,12.125 12.52943,-1.80905 26.09872,-3.62857 38.9375,-4.75 15.23464,-1.3307 28.65174,-1.99924 39.03125,0.5 12.36323,2.97689 20.3027,12.36258 27.9375,19.125 3.8174,3.38121 7.41795,6.21692 10.1875,7.6875 2.76955,1.47058 4.10139,1.58287 5.34375,1.25 0.12296,-0.033 0.66223,-0.12022 1.90625,-2.65625 1.24402,-2.53603 2.48872,-6.8025 3.75,-11.5 1.26128,-4.6975 2.52632,-9.82764 4.84375,-14.8125 2.31743,-4.98486 6.18365,-10.52543 12.875,-12.84375 9.739692,-3.37447 19.557415,-0.92264 28.5625,2.90625 9.005085,3.82889 17.736478,9.39625 25.875,14.78125 8.138522,5.385 15.723049,10.62959 21.46875,13.71875 0.628172,0.33773 0.859592,0.34388 1.4375,0.625 -1.567371,-5.14639 -4.106246,-12.01558 -7.625,-20.34375 -7.946428,-18.80757 -19.862186,-43.72289 -31.75,-68.875 -11.887814,-25.15211 -23.727494,-50.54634 -31.75,-70.90625 -4.011253,-10.17995 -7.072665,-19.02809 -8.71875,-26.46875 -0.823042,-3.72033 -1.340556,-7.06382 -1.21875,-10.5 0.121806,-3.43618 0.78059,-7.7377 4.6875,-11.15625 5.065502,-4.43231 18.908742,-17.04415 34.375,-33.09375 -1.308776,0.74184 -2.643737,1.44415 -4.03125,2.03125 -6.632644,2.80647 -14.565208,3.37742 -21.78125,0.40625 a 9.1497339,9.1497339 0 0 1 -5.625,-9.4375 c 0.194462,-1.84678 0.487162,-3.70638 0.75,-5.5625 -0.177971,0.19961 -0.317467,0.42901 -0.5,0.625 -4.661471,5.00523 -11.27985,8.65764 -18.6875,9.03125 a 9.1497339,9.1497339 0 0 1 -4.3125,-0.8125 c -6.50672,-3.01049 -8.61334,-8.98734 -9.84375,-14.25 -0.52506,-2.24577 -0.85506,-4.63383 -1.125,-7.09375 z"
         id="path6735"
         style="fill:#c17d11;fill-opacity:1;fill-rule:nonzero;stroke:none;stroke-width:0.5;marker:none;visibility:visible;display:inline;overflow:visible;filter:url(#filter6809);enable-background:accumulate"
         inkscape:original="M -156.53125 370.875 C -158.57306 370.83759 -160.71875 370.9375 -162.96875 371.15625 C -177.32328 372.55183 -111.99362 477.46377 -137.96875 494.15625 C -161.10586 509.02492 -174.49164 465.39955 -196.84375 449.375 C -206.05886 442.76856 -223.89632 424.29374 -230.96875 433.15625 C -255.7513 464.21145 -151.93645 497.53564 -148.96875 537.15625 C -143.4489 610.84975 -228.96875 737.15625 -270.96875 751.15625 C -312.96875 765.15625 -194.51705 737.55986 -162.96875 745.15625 C -146.76104 749.05884 -131.07168 777.47082 -114.96875 773.15625 C -100.95113 769.40041 -104.68113 735.90712 -90.96875 731.15625 C -65.280807 722.25626 -20.96875 773.15625 -6.96875 765.15625 C 7.0312502 757.15625 -102.96875 567.15625 -86.96875 553.15625 C -70.968747 539.15625 27.031247 451.15625 11.03125 399.15625 C -0.96875032 390.15625 -41.61238 523.36106 -80.96875 507.15625 C -75.691177 457.03595 -39.96875 396.15625 -70.96875 375.15625 C -82.968747 371.15625 -69.53723 499.1675 -108.96875 501.15625 C -127.54664 492.56075 -93.234987 372.03462 -156.53125 370.875 z "
         inkscape:radius="-9.148819"
         sodipodi:type="inkscape:offset" />
      <path
         id="path6813"
         d="m -266.53558,253.87384 c -2.04181,-0.0374 -4.1875,0.0625 -6.4375,0.28125 -14.35453,1.39558 50.97513,106.30752 25,123 -23.13711,14.86867 -36.52289,-28.7567 -58.875,-44.78125 -9.21508,-6.60644 -27.05257,-25.08126 -34.125,-16.21875 -23.80531,29.83061 71.03983,61.75645 81.1875,99.34375 15.55242,2.52641 31.8616,3.04091 48.53125,1.1875 16.69699,-1.85644 32.54191,-5.95465 47.1875,-11.84375 33.09217,-34.03215 76.107737,-86.89205 65.09375,-122.6875 -12,-9 -52.64363,124.20481 -92,108 5.27757,-50.1203 41,-111 10,-132 -12,-4 1.43152,124.01125 -38,126 -18.57789,-8.5955 15.73376,-129.12163 -47.5625,-130.28125 z"
         style="opacity:0.25;fill:#000000;fill-opacity:1;fill-rule:nonzero;stroke:none;stroke-width:0.5;marker:none;visibility:visible;display:inline;overflow:visible;enable-background:accumulate" />
      <path
         id="path6161"
         d="m -297.56131,1.7139522 c -34.56303,3.8428711 -59.87959,31.5568778 -56.51231,61.8422988 0.91054,8.189409 3.84173,15.709365 8.29433,22.28241 -1.77962,1.070867 -3.47325,2.247469 -5.11756,3.461709 -12.26255,-8.078444 -28.04329,-12.131664 -44.72206,-10.277244 -34.56302,3.842871 -59.87958,31.556874 -56.5123,61.842294 2.76358,24.85584 24.00191,43.74503 50.63285,47.60268 -0.63538,3.56387 -1.1199,7.15906 -1.44173,10.78788 -6.28174,-1.05503 -12.87012,-1.2731 -19.61544,-0.52313 -34.56302,3.84287 -59.87958,31.55689 -56.5123,61.8423 3.24554,29.19061 31.95474,50.17042 64.97519,48.20901 -0.41287,3.59371 -0.44971,7.26709 -0.0372,10.97758 3.36727,30.28542 34.14956,51.73068 68.71258,47.8878 20.89882,-2.32363 38.4051,-13.37758 48.24617,-28.44307 21.13625,5.99141 44.17019,8.10618 67.92613,5.46489 28.47959,-3.16649 54.48064,-12.74118 76.27863,-26.8749 8.11305,4.31602 17.91864,6.34001 28.21563,5.19514 17.62519,-1.95964 31.870725,-12.6684 37.613822,-26.50629 11.804918,9.86785 28.4464,15.13678 46.175136,13.16562 31.819925,-3.53789 55.129858,-29.02871 52.029831,-56.91052 -2.2541939,-20.27436 -17.8710497,-36.25289 -38.450477,-42.10268 5.107719,-8.6325 7.559666,-18.54359 6.420197,-28.79204 -1.361228,-12.24297 -7.594279,-22.93872 -16.846488,-30.76431 7.26713,-10.23204 10.926209,-22.48305 9.511816,-35.20419 -2.985691,-26.853487 -27.534028,-46.771459 -57.151812,-48.261339 0.543953,-3.736792 0.637846,-7.5546 0.206231,-11.43658 -3.100025,-27.881815 -31.443286,-47.6610448 -63.263206,-44.123163 -15.16035,1.685595 -28.39176,8.367793 -37.75248,17.906446 -4.71898,-0.526798 -9.6189,-0.565541 -14.59077,-0.01275 -11.24371,1.250127 -21.40418,5.264418 -29.73288,11.135033 -7.64245,-25.662132 -35.76891,-42.8410283 -66.97957,-39.3708878 z"
         style="fill:#4e9a06;fill-opacity:1;fill-rule:nonzero;stroke:none;stroke-width:0.5;marker:none;visibility:visible;display:inline;overflow:visible;enable-background:accumulate" />
      <path
         transform="translate(10,-160)"
         d="m -297,174.78125 c -2.67085,-0.13298 -5.48412,-0.0437 -8.40625,0.28125 -25.39088,2.82308 -41.35311,21.99041 -39.3125,40.34375 0.55066,4.95267 2.2283,9.39347 5.03125,13.53125 A 19.453033,19.453033 0 0 1 -345.75,256.5 c -1.0462,0.62955 -2.24721,1.4744 -3.59375,2.46875 a 19.453033,19.453033 0 0 1 -22.25,0.59375 c -8.3603,-5.50768 -19.63199,-8.54873 -31.875,-7.1875 -25.39087,2.82307 -41.35311,21.99041 -39.3125,40.34375 1.67412,15.05721 14.89141,27.72295 34.0625,30.5 a 19.453033,19.453033 0 0 1 16.375,22.65625 c -0.53666,3.01006 -0.94767,6.03713 -1.21875,9.09375 a 19.453033,19.453033 0 0 1 -22.59375,17.46875 c -4.53554,-0.76175 -9.31608,-0.92357 -14.25,-0.375 -25.39084,2.82307 -41.35311,21.99043 -39.3125,40.34375 1.96692,17.69054 20.31365,32.40356 44.46875,30.96875 A 19.453033,19.453033 0 0 1 -404.78125,465 c -0.25432,2.21367 -0.24532,4.38733 0,6.59375 2.03984,18.34649 21.82233,33.54244 47.21875,30.71875 15.35458,-1.7072 27.68001,-9.85225 34.125,-19.71875 A 19.453033,19.453033 0 0 1 -301.84375,474.5 c 18.71244,5.30433 39.17142,7.17696 60.4375,4.8125 25.49198,-2.83431 48.60608,-11.37013 67.84375,-23.84375 a 19.453033,19.453033 0 0 1 19.71875,-0.875 c 4.62604,2.46099 10.52036,3.77599 16.9375,3.0625 11.03978,-1.22745 19.07697,-8.0338 21.8125,-14.625 a 19.453033,19.453033 0 0 1 30.4375,-7.46875 c 7.520616,6.28655 18.906423,10.15368 31.53125,8.75 22.660165,-2.51947 36.616498,-19.46206 34.84375,-35.40625 -1.28902,-11.59353 -10.312579,-21.55631 -24.40625,-25.5625 a 19.453033,19.453033 0 0 1 -11.4375,-28.625 c 3.170094,-5.35774 4.46322,-10.86614 3.8125,-16.71875 -0.778227,-6.99943 -4.186295,-13.09236 -10.0625,-18.0625 a 19.453033,19.453033 0 0 1 -3.28125,-26.09375 c 4.812143,-6.77545 6.884606,-14.13736 6.03125,-21.8125 -1.808181,-16.26289 -17.307388,-29.88854 -38.78125,-30.96875 a 19.453033,19.453033 0 0 1 -18.28125,-22.25 c 0.30864,-2.12026 0.34315,-4.22565 0.0937,-6.46875 -1.77348,-15.95076 -19.10435,-29.45534 -41.75,-26.9375 -10.78437,1.19905 -19.90663,5.94647 -26.03125,12.1875 a 19.453033,19.453033 0 0 1 -16.03125,5.71875 c -3.39712,-0.37923 -6.85182,-0.41255 -10.28125,-0.0312 -7.95576,0.88455 -15.02696,3.72883 -20.6875,7.71875 a 19.453033,19.453033 0 0 1 -29.875,-10.34375 c -4.02333,-13.5097 -18.63024,-24.92304 -37.75,-25.875 z"
         id="path6190"
         style="fill:#73d216;fill-opacity:1;fill-rule:nonzero;stroke:none;stroke-width:0.5;marker:none;visibility:visible;display:inline;overflow:visible;filter:url(#filter6725);enable-background:accumulate"
         inkscape:original="M -296.03125 155.34375 C -299.80222 155.156 -303.66117 155.28498 -307.5625 155.71875 C -342.12553 159.56163 -367.42978 187.27708 -364.0625 217.5625 C -363.15197 225.75192 -360.23385 233.27071 -355.78125 239.84375 C -357.56086 240.91463 -359.26194 242.09826 -360.90625 243.3125 C -373.1688 235.23406 -388.94623 231.17683 -405.625 233.03125 C -440.18803 236.87412 -465.49228 264.58958 -462.125 294.875 C -459.36143 319.73084 -438.13094 338.6111 -411.5 342.46875 C -412.13539 346.03261 -412.61567 349.62118 -412.9375 353.25 C -419.21924 352.19497 -425.81718 351.96878 -432.5625 352.71875 C -467.12551 356.56162 -492.42978 384.27709 -489.0625 414.5625 C -485.81695 443.7531 -457.1142 464.74266 -424.09375 462.78125 C -424.50661 466.37497 -424.53755 470.03951 -424.125 473.75 C -420.75774 504.03541 -389.96927 525.49913 -355.40625 521.65625 C -334.50744 519.33262 -316.99732 508.28424 -307.15625 493.21875 C -286.02 499.21015 -263.00594 501.29754 -239.25 498.65625 C -210.77041 495.48976 -184.76674 485.91497 -162.96875 471.78125 C -154.8557 476.09728 -145.04699 478.14487 -134.75 477 C -117.12481 475.04035 -102.8681 464.33789 -97.125 450.5 C -85.320079 460.36784 -68.697486 465.62741 -50.96875 463.65625 C -19.148827 460.11835 4.162527 434.63181 1.0625 406.75 C -1.1916938 386.47563 -16.795573 370.47479 -37.375 364.625 C -32.267282 355.9925 -29.829281 346.0922 -30.96875 335.84375 C -32.329978 323.60077 -38.560291 312.91934 -47.8125 305.09375 C -40.545369 294.8617 -36.866857 282.59614 -38.28125 269.875 C -41.266942 243.0215 -65.819716 223.11488 -95.4375 221.625 C -94.893551 217.88822 -94.818385 214.06948 -95.25 210.1875 C -98.350028 182.30568 -126.68008 162.52462 -158.5 166.0625 C -173.66034 167.74809 -186.88928 174.4301 -196.25 183.96875 C -200.96898 183.44196 -205.87188 183.3847 -210.84375 183.9375 C -222.08746 185.18762 -232.26505 189.22313 -240.59375 195.09375 C -247.28089 172.63939 -269.63448 156.65803 -296.03125 155.34375 z "
         inkscape:radius="-19.451088"
         sodipodi:type="inkscape:offset" />
      <path
         id="path6820"
         d="m -245.52268,432.50857 c -3.34603,11.04001 3.32232,21.68588 3.5625,32.71875 0.087,-10.91058 -0.96998,-22.63107 -3.5625,-32.71875 z m 3.25,38.78125 c -1.84127,9.63831 -3.94516,19.33813 -6.90625,28.625 4.05637,-9.06069 6.32041,-19.02574 6.96875,-28.9375 l -0.0625,0.3125 z"
         style="opacity:0.99647887;fill:#e9b96e;fill-opacity:1;fill-rule:nonzero;stroke:none;stroke-width:0.5;marker:none;visibility:visible;display:inline;overflow:visible;enable-background:accumulate" />
      <path
         id="path6822"
         d="m -209.57601,496.48039 c -6.42544,16.66923 -5.17902,35.09595 -9.9375,52.15625 -3.20476,25.02006 -10.61184,52.24536 1.28125,76.0625 3.26125,3.95396 1.11973,-2.03386 0.625,-3.9375 -2.94552,-10.12555 -7.77367,-19.96823 -5.88111,-30.81058 1.24746,-31.70057 8.53808,-62.69274 14.06861,-93.84567 l -0.15625,0.375 z"
         style="opacity:0.95;fill:#e9b96e;fill-opacity:1;fill-rule:nonzero;stroke:none;stroke-width:0.5;marker:none;visibility:visible;display:inline;overflow:visible;enable-background:accumulate" />
      <path
         id="path6824"
         d="m -207.78125,437.90625 c -5.09113,12.45604 -1.98178,26.61141 -4.59375,39.6875 6.12431,23.61926 18.40217,45.15818 24.6875,68.75 9.35383,24.23596 28.82032,43.05544 38.21875,67.15625 1.85577,-0.28801 -0.38872,-4.45931 -0.65625,-6 -3.57952,-11.07511 -11.09769,-20.09912 -17.9375,-29.125 -15.87667,-22.90876 -23.43219,-50.22259 -33.625,-75.90625 -12.65007,-19.09726 -9.44797,-43.40608 -6,-64.78125 l -0.0937,0.21875 z"
         style="opacity:0.99647887;fill:#e9b96e;fill-opacity:1;fill-rule:nonzero;stroke:none;stroke-width:0.5;marker:none;visibility:visible;display:inline;overflow:visible;enable-background:accumulate" />
      <path
         id="path6826"
         d="m -192.5625,587.8125 c -8.90648,0.10342 -11.17114,11.82226 -7.53125,18.15625 3.85769,-0.9781 2.96607,-7.94483 0.8125,-10.78125 -1.30074,-2.94648 3.95944,-5.24454 6.78125,-6.125 8.18598,-1.13553 10.88625,8.88217 13.3125,14.6875 2.48422,5.44489 4.17384,13.56458 10.46875,15.5625 3.72653,-2.00098 -1.95168,-5.63586 -3.375,-7.21875 -3.22934,-2.42997 -6.65489,-5.49309 -4.375,-9.71875 1.00295,-8.67885 -8.15789,-15.07725 -16.09375,-14.5625 z"
         style="opacity:0.99647887;fill:#e9b96e;fill-opacity:1;fill-rule:nonzero;stroke:none;stroke-width:0.5;marker:none;visibility:visible;display:inline;overflow:visible;enable-background:accumulate" />
      <path
         id="path6828"
         d="m -257.93382,548.82843 c -1.59068,5.39408 -3.4712,10.65799 -5.65625,15.84375 2.84419,-5.12877 6.4313,-10.53909 5.875,-16.625 l -0.21875,0.78125 z"
         style="opacity:0.99647887;fill:#e9b96e;fill-opacity:1;fill-rule:nonzero;stroke:none;stroke-width:0.5;marker:none;visibility:visible;display:inline;overflow:visible;enable-background:accumulate" />
      <path
         id="path6830"
         d="m -209.09375,564.71875 c -2.68987,4.58623 -5.55649,11.02511 -5.96875,15.40625 3.56596,-4.57672 4.26282,-10.61948 6.3125,-15.9375 l -0.34375,0.53125 z"
         style="opacity:0.99647887;fill:#e9b96e;fill-opacity:1;fill-rule:nonzero;stroke:none;stroke-width:0.5;marker:none;visibility:visible;display:inline;overflow:visible;enable-background:accumulate" />
      <path
         sodipodi:nodetypes="ccccccccc"
         style="opacity:0.99647887;fill:#e9b96e;fill-opacity:1;fill-rule:nonzero;stroke:none;stroke-width:0.5;marker:none;visibility:visible;display:inline;overflow:visible;enable-background:accumulate"
         d="m -319.48002,614.71658 c -2.77247,-11.25371 27.20506,-31.11378 25.78267,-42.92768 8.28484,-19.21806 15.67808,-40.09211 19.10086,-61.40669 5.0938,-21.89655 15.69462,-38.89945 20.8127,-60.6739 1.01059,0.26021 -0.21168,4.02887 -0.35737,5.42084 -1.94929,10.00607 -6.04344,18.15903 -9.76818,26.31367 -8.64593,20.69746 -12.76042,45.37478 -18.31109,68.57929 -6.88882,17.25387 -39.08619,45.5802 -37.20854,64.8921 l -0.0511,-0.19763 z"
         id="path6874" />
      <path
         id="path6876"
         d="m -194.00504,142.42717 c -27.59352,0 -50.40999,18.09058 -54,41.53125 13.30614,-17.59288 39.22895,-29.53125 69,-29.53125 8.48731,0 16.65451,0.98516 24.3125,2.78125 -9.92058,-9.10506 -23.86402,-14.78125 -39.3125,-14.78125 z"
         style="opacity:0.95;fill:#8ae234;fill-opacity:1;fill-rule:nonzero;stroke:none;stroke-width:0.5;marker:none;visibility:visible;display:inline;overflow:visible;filter:url(#filter7058);enable-background:accumulate" />
      <path
         style="opacity:0.95;fill:#8ae234;fill-opacity:1;fill-rule:nonzero;stroke:none;stroke-width:0.5;marker:none;visibility:visible;display:inline;overflow:visible;filter:url(#filter7062);enable-background:accumulate"
         d="m -254.39957,135.88746 c -22.92334,-15.35978 -51.94817,-13.03168 -67.97869,4.44332 20.84707,-7.20851 49.02789,-2.69653 73.76022,13.87536 7.05084,4.72441 13.28736,10.08906 18.64946,15.84394 -3.17325,-13.08627 -11.59716,-25.56331 -24.43099,-34.16262 z"
         id="path6882" />
      <path
         id="path6884"
         d="m -175.60989,118.70261 c 16.95952,-12.91275 38.43315,-10.95555 50.29311,3.73544 -15.42342,-6.0601 -36.27262,-2.26694 -54.5705,11.66483 -5.21647,3.97174 -9.83047,8.48173 -13.79755,13.31978 2.34769,-11.00145 8.58,-21.49073 18.07494,-28.72005 z"
         style="opacity:0.95;fill:#8ae234;fill-opacity:1;fill-rule:nonzero;stroke:none;stroke-width:0.5;marker:none;visibility:visible;display:inline;overflow:visible;filter:url(#filter7054);enable-background:accumulate" />
      <path
         transform="matrix(0.8516972,0.5240343,0.5240343,-0.8516972,5.6207801,513.3793)"
         style="opacity:0.95;fill:#4e9a06;fill-opacity:1;fill-rule:nonzero;stroke:none;stroke-width:0.5;marker:none;visibility:visible;display:inline;overflow:visible;filter:url(#filter7058);enable-background:accumulate"
         d="m -194.00504,142.42717 c -27.59352,0 -50.40999,18.09058 -54,41.53125 13.30614,-17.59288 39.22895,-29.53125 69,-29.53125 8.48731,0 16.65451,0.98516 24.3125,2.78125 -9.92058,-9.10506 -23.86402,-14.78125 -39.3125,-14.78125 z"
         id="path7066" />
      <path
         transform="matrix(0.9511703,-0.3086666,-0.3086666,-0.9511703,-3.846703,365.60221)"
         id="path7068"
         d="m -254.39957,135.88746 c -22.92334,-15.35978 -51.94817,-13.03168 -67.97869,4.44332 20.84707,-7.20851 49.02789,-2.69653 73.76022,13.87536 7.05084,4.72441 13.28736,10.08906 18.64946,15.84394 -3.17325,-13.08627 -11.59716,-25.56331 -24.43099,-34.16262 z"
         style="opacity:0.95;fill:#4e9a06;fill-opacity:1;fill-rule:nonzero;stroke:none;stroke-width:0.5;marker:none;visibility:visible;display:inline;overflow:visible;filter:url(#filter7062);enable-background:accumulate" />
      <path
         transform="matrix(1,0,0,-1,8,419.06758)"
         style="opacity:0.95;fill:#4e9a06;fill-opacity:1;fill-rule:nonzero;stroke:none;stroke-width:0.5;marker:none;visibility:visible;display:inline;overflow:visible;filter:url(#filter7054);enable-background:accumulate"
         d="m -175.60989,118.70261 c 16.95952,-12.91275 38.43315,-10.95555 50.29311,3.73544 -15.42342,-6.0601 -36.27262,-2.26694 -54.5705,11.66483 -5.21647,3.97174 -9.83047,8.48173 -13.79755,13.31978 2.34769,-11.00145 8.58,-21.49073 18.07494,-28.72005 z"
         id="path7070" />
    </g>
  </g>
</svg>
