<?xml version="1.0" encoding="UTF-8" standalone="no"?>
<!-- Created with Inkscape (http://www.inkscape.org/) -->
<svg
   xmlns:dc="http://purl.org/dc/elements/1.1/"
   xmlns:cc="http://creativecommons.org/ns#"
   xmlns:rdf="http://www.w3.org/1999/02/22-rdf-syntax-ns#"
   xmlns:svg="http://www.w3.org/2000/svg"
   xmlns="http://www.w3.org/2000/svg"
   xmlns:sodipodi="http://sodipodi.sourceforge.net/DTD/sodipodi-0.dtd"
   xmlns:inkscape="http://www.inkscape.org/namespaces/inkscape"
   width="256"
   height="256"
   id="svg2591"
   sodipodi:version="0.32"
   inkscape:version="0.46"
   version="1.0"
   sodipodi:docname="tree.svg"
   inkscape:output_extension="org.inkscape.output.svg.inkscape">
  <defs
     id="defs2593">
    <filter
       inkscape:collect="always"
       id="filter7054"
       x="-0.066042237"
       width="1.1320845"
       y="-0.12100657"
       height="1.2420131">
      <feGaussianBlur
         inkscape:collect="always"
         stdDeviation="1.8813246"
         id="feGaussianBlur7056" />
    </filter>
    <filter
       inkscape:collect="always"
       id="filter7062"
       x="-0.048860457"
       width="1.0977209"
       y="-0.10172857"
       height="1.2034571">
      <feGaussianBlur
         inkscape:collect="always"
         stdDeviation="1.8813246"
         id="feGaussianBlur7064" />
    </filter>
    <filter
       inkscape:collect="always"
       id="filter7058"
       x="-0.048387717"
       width="1.0967754"
       y="-0.10871763"
       height="1.2174352">
      <feGaussianBlur
         inkscape:collect="always"
         stdDeviation="1.8813246"
         id="feGaussianBlur7060" />
    </filter>
    <filter
       inkscape:collect="always"
       id="filter6725">
      <feGaussianBlur
         inkscape:collect="always"
         stdDeviation="10.829078"
         id="feGaussianBlur6727" />
    </filter>
    <filter
       inkscape:collect="always"
       id="filter6809"
       x="-0.10300414"
       width="1.2060083"
       y="-0.064288795"
       height="1.1285776">
      <feGaussianBlur
         inkscape:collect="always"
         stdDeviation="10.293708"
         id="feGaussianBlur6811" />
    </filter>
    <inkscape:perspective
       sodipodi:type="inkscape:persp3d"
       inkscape:vp_x="0 : 526.18109 : 1"
       inkscape:vp_y="0 : 1000 : 0"
       inkscape:vp_z="744.09448 : 526.18109 : 1"
       inkscape:persp3d-origin="372.04724 : 350.78739 : 1"
       id="perspective2599" />
  </defs>
  <sodipodi:namedview
     id="base"
     pagecolor="#ffffff"
     bordercolor="#666666"
     borderopacity="1.0"
     gridtolerance="10000"
     guidetolerance="10"
     objecttolerance="10"
     inkscape:pageopacity="0.0"
     inkscape:pageshadow="2"
     inkscape:zoom="0.64806586"
     inkscape:cx="187.6524"
     inkscape:cy="-399.65074"
     inkscape:document-units="px"
     inkscape:current-layer="layer1"
     showgrid="false"
     showborder="false"
     inkscape:showpageshadow="false"
     borderlayer="false"
     inkscape:window-width="1920"
     inkscape:window-height="1144"
     inkscape:window-x="-4"
     inkscape:window-y="-4" />
  <metadata
     id="metadata2596">
    <rdf:RDF>
      <cc:Work
         rdf:about="">
        <dc:format>image/svg+xml</dc:format>
        <dc:type
           rdf:resource="http://purl.org/dc/dcmitype/StillImage" />
      </cc:Work>
    </rdf:RDF>
  </metadata>
  <g
     inkscape:label="Layer 1"
     inkscape:groupmode="layer"
     id="layer1">
    <g
       id="g7078"
       transform="matrix(0.3900473,0,0,0.3900473,219.27567,-0.4949947)">
      <path
         sodipodi:type="inkscape:offset"
         inkscape:radius="-19.451088"
         inkscape:original="M -296.03125 155.34375 C -299.80222 155.156 -303.66117 155.28498 -307.5625 155.71875 C -342.12553 159.56163 -367.42978 187.27708 -364.0625 217.5625 C -363.15197 225.75192 -360.23385 233.27071 -355.78125 239.84375 C -357.56086 240.91463 -359.26194 242.09826 -360.90625 243.3125 C -373.1688 235.23406 -388.94623 231.17683 -405.625 233.03125 C -440.18803 236.87412 -465.49228 264.58958 -462.125 294.875 C -459.36143 319.73084 -438.13094 338.6111 -411.5 342.46875 C -412.13539 346.03261 -412.61567 349.62118 -412.9375 353.25 C -419.21924 352.19497 -425.81718 351.96878 -432.5625 352.71875 C -467.12551 356.56162 -492.42978 384.27709 -489.0625 414.5625 C -485.81695 443.7531 -457.1142 464.74266 -424.09375 462.78125 C -424.50661 466.37497 -424.53755 470.03951 -424.125 473.75 C -420.75774 504.03541 -389.96927 525.49913 -355.40625 521.65625 C -334.50744 519.33262 -316.99732 508.28424 -307.15625 493.21875 C -286.02 499.21015 -263.00594 501.29754 -239.25 498.65625 C -210.77041 495.48976 -184.76674 485.91497 -162.96875 471.78125 C -154.8557 476.09728 -145.04699 478.14487 -134.75 477 C -117.12481 475.04035 -102.8681 464.33789 -97.125 450.5 C -85.320079 460.36784 -68.697486 465.62741 -50.96875 463.65625 C -19.148827 460.11835 4.162527 434.63181 1.0625 406.75 C -1.1916938 386.47563 -16.795573 370.47479 -37.375 364.625 C -32.267282 355.9925 -29.829281 346.0922 -30.96875 335.84375 C -32.329978 323.60077 -38.560291 312.91934 -47.8125 305.09375 C -40.545369 294.8617 -36.866857 282.59614 -38.28125 269.875 C -41.266942 243.0215 -65.819716 223.11488 -95.4375 221.625 C -94.893551 217.88822 -94.818385 214.06948 -95.25 210.1875 C -98.350028 182.30568 -126.68008 162.52462 -158.5 166.0625 C -173.66034 167.74809 -186.88928 174.4301 -196.25 183.96875 C -200.96898 183.44196 -205.87188 183.3847 -210.84375 183.9375 C -222.08746 185.18762 -232.26505 189.22313 -240.59375 195.09375 C -247.28089 172.63939 -269.63448 156.65803 -296.03125 155.34375 z "
         style="opacity:1;fill:#376e04;fill-opacity:1;fill-rule:nonzero;stroke:none;stroke-width:0.5;stroke-linecap:butt;stroke-linejoin:miter;marker:none;marker-start:none;marker-mid:none;marker-end:none;stroke-miterlimit:4;stroke-dasharray:none;stroke-dashoffset:0;stroke-opacity:1;visibility:visible;display:inline;overflow:visible;enable-background:accumulate"
         id="path7072"
         d="M -297,174.78125 C -299.67085,174.64827 -302.48412,174.7376 -305.40625,175.0625 C -330.79713,177.88558 -346.75936,197.05291 -344.71875,215.40625 C -344.16809,220.35892 -342.49045,224.79972 -339.6875,228.9375 C -336.69636,233.35626 -335.65162,238.8097 -336.79789,244.02107 C -337.94415,249.23245 -341.18078,253.74418 -345.75,256.5 C -346.7962,257.12955 -347.99721,257.9744 -349.34375,258.96875 C -355.90333,263.8093 -364.78534,264.04632 -371.59375,259.5625 C -379.95405,254.05482 -391.22574,251.01377 -403.46875,252.375 C -428.85962,255.19807 -444.82186,274.36541 -442.78125,292.71875 C -441.10713,307.77596 -427.88984,320.4417 -408.71875,323.21875 C -403.50381,323.97122 -398.81716,326.80692 -395.73073,331.07726 C -392.64431,335.3476 -391.42213,340.68728 -392.34375,345.875 C -392.88041,348.88506 -393.29142,351.91213 -393.5625,354.96875 C -394.04092,360.36947 -396.75157,365.32549 -401.04091,368.64186 C -405.33024,371.95823 -410.80901,373.33402 -416.15625,372.4375 C -420.69179,371.67575 -425.47233,371.51393 -430.40625,372.0625 C -455.79709,374.88557 -471.75936,394.05293 -469.71875,412.40625 C -467.75183,430.09679 -449.4051,444.80981 -425.25,443.375 C -419.51726,443.03813 -413.9286,445.25143 -409.98098,449.42204 C -406.03335,453.59266 -404.13019,459.2944 -404.78125,465 C -405.03557,467.21367 -405.02657,469.38733 -404.78125,471.59375 C -402.74141,489.94024 -382.95892,505.13619 -357.5625,502.3125 C -342.20792,500.6053 -329.88249,492.46025 -323.4375,482.59375 C -318.78692,475.46035 -310.03733,472.18084 -301.84375,474.5 C -283.13131,479.80433 -262.67233,481.67696 -241.40625,479.3125 C -215.91427,476.47819 -192.80017,467.94237 -173.5625,455.46875 C -167.63662,451.6165 -160.08754,451.28151 -153.84375,454.59375 C -149.21771,457.05474 -143.32339,458.36974 -136.90625,457.65625 C -125.86647,456.4288 -117.82928,449.62245 -115.09375,443.03125 C -112.72118,437.31763 -107.77233,433.07324 -101.76393,431.5989 C -95.755533,430.12456 -89.404104,431.59609 -84.65625,435.5625 C -77.135634,441.84905 -65.749827,445.71618 -53.125,444.3125 C -30.464835,441.79303 -16.508502,424.85044 -18.28125,408.90625 C -19.57027,397.31272 -28.593829,387.34994 -42.6875,383.34375 C -48.494885,381.69836 -53.209486,377.45041 -55.449081,371.84531 C -57.688676,366.2402 -57.199512,359.91302 -54.125,354.71875 C -50.954906,349.36101 -49.66178,343.85261 -50.3125,338 C -51.090727,331.00057 -54.498795,324.90764 -60.375,319.9375 C -68.073094,313.40825 -69.498154,302.07563 -63.65625,293.84375 C -58.844107,287.0683 -56.771644,279.70639 -57.625,272.03125 C -59.433181,255.76836 -74.932388,242.14271 -96.40625,241.0625 C -101.88256,240.79018 -106.98965,238.21939 -110.47049,233.98288 C -113.95132,229.74638 -115.48263,224.23762 -114.6875,218.8125 C -114.37886,216.69224 -114.34435,214.58685 -114.59375,212.34375 C -116.36723,196.39299 -133.6981,182.88841 -156.34375,185.40625 C -167.12812,186.6053 -176.25038,191.35272 -182.375,197.59375 C -186.55701,201.8607 -192.46784,203.96924 -198.40625,203.3125 C -201.80337,202.93327 -205.25807,202.89995 -208.6875,203.28125 C -216.64326,204.1658 -223.71446,207.01008 -229.375,211 C -234.49433,214.61839 -241.0437,215.5479 -246.96766,213.49682 C -252.89163,211.44574 -257.46408,206.66547 -259.25,200.65625 C -263.27333,187.14655 -277.88024,175.73321 -297,174.78125 z"
         transform="matrix(0.9291665,0,0,0.957308,10.71578,-86.540763)" />
      <path
         sodipodi:nodetypes="cccccccccccccccc"
         id="path6729"
         d="M -342.97308,317.15509 C -367.75563,348.21029 -263.94078,381.53448 -260.97308,421.15509 C -255.45323,494.84859 -340.97308,621.15509 -382.97308,635.15509 C -424.97308,649.15509 -306.52138,621.5587 -274.97308,629.15509 C -258.76537,633.05768 -243.07601,661.46966 -226.97308,657.15509 C -212.95546,653.39925 -216.68546,619.90596 -202.97308,615.15509 C -177.28514,606.2551 -132.97308,657.15509 -118.97308,649.15509 C -104.97308,641.15509 -214.97308,451.15509 -198.97308,437.15509 C -182.97308,423.15509 -84.973083,335.15509 -100.97308,283.15509 C -112.97308,274.15509 -153.61671,407.3599 -192.97308,391.15509 C -187.69551,341.03479 -151.97308,280.15509 -182.97308,259.15509 C -194.97308,255.15509 -181.54156,383.16634 -220.97308,385.15509 C -240.15026,376.28232 -202.97308,248.15509 -274.97308,255.15509 C -289.32761,256.55067 -223.99795,361.46261 -249.97308,378.15509 C -273.11019,393.02376 -286.48917,349.41237 -308.84128,333.38782 C -318.05639,326.78138 -335.90065,308.29258 -342.97308,317.15509 z"
         style="opacity:1;fill:#8f5902;fill-opacity:1;fill-rule:nonzero;stroke:none;stroke-width:0.5;stroke-linecap:butt;stroke-linejoin:miter;marker:none;marker-start:none;marker-mid:none;marker-end:none;stroke-miterlimit:4;stroke-dasharray:none;stroke-dashoffset:0;stroke-opacity:1;visibility:visible;display:inline;overflow:visible;enable-background:accumulate" />
      <path
         transform="translate(-111,-117)"
         d="M -154.5625,380.1875 C -154.08632,381.79211 -153.56548,383.52366 -152.84375,385.53125 C -149.33169,395.30052 -143.3147,409.1279 -137.59375,423.5625 C -132.26611,437.00474 -127.26867,450.89504 -124.59375,463.59375 C -124.60496,453.91883 -124.59035,443.83838 -125.125,433.71875 C -125.92432,418.58951 -128.27249,404.16689 -133.15625,394.6875 C -137.75166,385.76781 -143.19058,380.93459 -154.5625,380.1875 z M -67.78125,400.03125 C -68.143176,404.8573 -68.513256,409.78187 -68.90625,415.5625 C -68.012434,409.7871 -67.513228,404.44527 -67.78125,400.03125 z M 1.0625,426.65625 C -4.1960097,436.57998 -9.8209972,447.79491 -16.6875,460.28125 C -18.78985,464.10425 -20.94047,467.93 -23.15625,471.6875 C -15.280414,460.87064 -8.3516379,449.85292 -3.59375,439.40625 C -1.5769349,434.97803 -0.12100709,430.74869 1.0625,426.65625 z M -224.71875,440.40625 C -225.44491,441.67473 -225.73307,442.67647 -225.59375,443.84375 C -225.40102,445.45853 -224.34176,448.05332 -221.8125,451.3125 C -216.75399,457.83086 -206.44898,466.08633 -194.9375,474.59375 C -187.79135,479.87502 -180.21523,485.36131 -172.96875,491.09375 C -173.54744,490.41125 -174.21295,489.82028 -174.78125,489.125 C -184.49533,477.24042 -193.50374,463.03801 -202.1875,456.8125 C -207.80534,452.78499 -214.23381,446.76634 -219.78125,443.0625 C -221.88145,441.66027 -223.57181,440.85959 -224.71875,440.40625 z M -123.78125,488.125 C -125.14354,493.41681 -128.0186,498.62246 -133.03125,501.84375 C -140.86481,506.87785 -150.46166,507.31689 -157.625,504 C -158.09092,503.78426 -158.48827,503.48442 -158.9375,503.25 C -149.08086,512.75164 -140.82982,523.3041 -139.84375,536.46875 C -136.79188,577.21317 -157.83295,627.83811 -184.34375,671.3125 C -197.59915,693.04969 -212.32919,712.85043 -226.6875,728.375 C -230.78571,732.80609 -234.80324,736.80374 -238.78125,740.5 C -226.25182,738.69095 -212.68253,736.87143 -199.84375,735.75 C -184.60911,734.4193 -171.19201,733.75076 -160.8125,736.25 C -148.44927,739.22689 -140.5098,748.61258 -132.875,755.375 C -129.0576,758.75621 -125.45705,761.59192 -122.6875,763.0625 C -119.91795,764.53308 -118.58611,764.64537 -117.34375,764.3125 C -117.22079,764.27955 -116.68152,764.19228 -115.4375,761.65625 C -114.19348,759.12022 -112.94878,754.85375 -111.6875,750.15625 C -110.42622,745.45875 -109.16118,740.32861 -106.84375,735.34375 C -104.52632,730.35889 -100.6601,724.81832 -93.96875,722.5 C -84.229058,719.12553 -74.411335,721.57736 -65.40625,725.40625 C -56.401165,729.23514 -47.669772,734.8025 -39.53125,740.1875 C -31.392728,745.5725 -23.808201,750.81709 -18.0625,753.90625 C -17.434328,754.24398 -17.202908,754.25013 -16.625,754.53125 C -18.192371,749.38486 -20.731246,742.51567 -24.25,734.1875 C -32.196428,715.37993 -44.112186,690.46461 -56,665.3125 C -67.887814,640.16039 -79.727494,614.76616 -87.75,594.40625 C -91.761253,584.2263 -94.822665,575.37816 -96.46875,567.9375 C -97.291792,564.21717 -97.809306,560.87368 -97.6875,557.4375 C -97.565694,554.00132 -96.90691,549.6998 -93,546.28125 C -87.934498,541.84894 -74.091258,529.2371 -58.625,513.1875 C -59.933776,513.92934 -61.268737,514.63165 -62.65625,515.21875 C -69.288894,518.02522 -77.221458,518.59617 -84.4375,515.625 C -88.202727,514.08026 -90.495058,510.23423 -90.0625,506.1875 C -89.868038,504.34072 -89.575338,502.48112 -89.3125,500.625 C -89.490471,500.82461 -89.629967,501.05401 -89.8125,501.25 C -94.473971,506.25523 -101.09235,509.90764 -108.5,510.28125 C -109.98213,510.36426 -111.46219,510.0854 -112.8125,509.46875 C -119.31922,506.45826 -121.42584,500.48141 -122.65625,495.21875 C -123.18131,492.97298 -123.51131,490.58492 -123.78125,488.125 z"
         id="path6735"
         style="opacity:1;fill:#c17d11;fill-opacity:1;fill-rule:nonzero;stroke:none;stroke-width:0.5;stroke-linecap:butt;stroke-linejoin:miter;marker:none;marker-start:none;marker-mid:none;marker-end:none;stroke-miterlimit:4;stroke-dasharray:none;stroke-dashoffset:0;stroke-opacity:1;visibility:visible;display:inline;overflow:visible;filter:url(#filter6809);enable-background:accumulate"
         inkscape:original="M -156.53125 370.875 C -158.57306 370.83759 -160.71875 370.9375 -162.96875 371.15625 C -177.32328 372.55183 -111.99362 477.46377 -137.96875 494.15625 C -161.10586 509.02492 -174.49164 465.39955 -196.84375 449.375 C -206.05886 442.76856 -223.89632 424.29374 -230.96875 433.15625 C -255.7513 464.21145 -151.93645 497.53564 -148.96875 537.15625 C -143.4489 610.84975 -228.96875 737.15625 -270.96875 751.15625 C -312.96875 765.15625 -194.51705 737.55986 -162.96875 745.15625 C -146.76104 749.05884 -131.07168 777.47082 -114.96875 773.15625 C -100.95113 769.40041 -104.68113 735.90712 -90.96875 731.15625 C -65.280807 722.25626 -20.96875 773.15625 -6.96875 765.15625 C 7.0312502 757.15625 -102.96875 567.15625 -86.96875 553.15625 C -70.968747 539.15625 27.031247 451.15625 11.03125 399.15625 C -0.96875032 390.15625 -41.61238 523.36106 -80.96875 507.15625 C -75.691177 457.03595 -39.96875 396.15625 -70.96875 375.15625 C -82.968747 371.15625 -69.53723 499.1675 -108.96875 501.15625 C -127.54664 492.56075 -93.234987 372.03462 -156.53125 370.875 z "
         inkscape:radius="-9.148819"
         sodipodi:type="inkscape:offset" />
      <path
         id="path6813"
         d="M -266.53558,253.87384 C -268.57739,253.83643 -270.72308,253.93634 -272.97308,254.15509 C -287.32761,255.55067 -221.99795,360.46261 -247.97308,377.15509 C -271.11019,392.02376 -284.49597,348.39839 -306.84808,332.37384 C -316.06316,325.7674 -333.90065,307.29258 -340.97308,316.15509 C -364.77839,345.9857 -269.93325,377.91154 -259.78558,415.49884 C -244.23316,418.02525 -227.92398,418.53975 -211.25433,416.68634 C -194.55734,414.8299 -178.71242,410.73169 -164.06683,404.84259 C -130.97466,370.81044 -87.959093,317.95054 -98.97308,282.15509 C -110.97308,273.15509 -151.61671,406.3599 -190.97308,390.15509 C -185.69551,340.03479 -149.97308,279.15509 -180.97308,258.15509 C -192.97308,254.15509 -179.54156,382.16634 -218.97308,384.15509 C -237.55097,375.55959 -203.23932,255.03346 -266.53558,253.87384 z"
         style="opacity:0.25;fill:#000000;fill-opacity:1;fill-rule:nonzero;stroke:none;stroke-width:0.5;stroke-linecap:butt;stroke-linejoin:miter;marker:none;marker-start:none;marker-mid:none;marker-end:none;stroke-miterlimit:4;stroke-dasharray:none;stroke-dashoffset:0;stroke-opacity:1;visibility:visible;display:inline;overflow:visible;enable-background:accumulate" />
      <path
         id="path6161"
         d="M -297.56131,1.7139522 C -332.12434,5.5568233 -357.4409,33.27083 -354.07362,63.556251 C -353.16308,71.74566 -350.23189,79.265616 -345.77929,85.838661 C -347.55891,86.909528 -349.25254,88.08613 -350.89685,89.30037 C -363.1594,81.221926 -378.94014,77.168706 -395.61891,79.023126 C -430.18193,82.865997 -455.49849,110.58 -452.13121,140.86542 C -449.36763,165.72126 -428.1293,184.61045 -401.49836,188.4681 C -402.13374,192.03197 -402.61826,195.62716 -402.94009,199.25598 C -409.22183,198.20095 -415.81021,197.98288 -422.55553,198.73285 C -457.11855,202.57572 -482.43511,230.28974 -479.06783,260.57515 C -475.82229,289.76576 -447.11309,310.74557 -414.09264,308.78416 C -414.50551,312.37787 -414.54235,316.05125 -414.1298,319.76174 C -410.76253,350.04716 -379.98024,371.49242 -345.41722,367.64954 C -324.5184,365.32591 -307.01212,354.27196 -297.17105,339.20647 C -276.0348,345.19788 -253.00086,347.31265 -229.24492,344.67136 C -200.76533,341.50487 -174.76428,331.93018 -152.96629,317.79646 C -144.85324,322.11248 -135.04765,324.13647 -124.75066,322.9916 C -107.12547,321.03196 -92.879935,310.3232 -87.136838,296.48531 C -75.33192,306.35316 -58.690438,311.62209 -40.961702,309.65093 C -9.141777,306.11304 14.168156,280.62222 11.068129,252.74041 C 8.8139351,232.46605 -6.8029207,216.48752 -27.382348,210.63773 C -22.274629,202.00523 -19.822682,192.09414 -20.962151,181.84569 C -22.323379,169.60272 -28.55643,158.90697 -37.808639,151.08138 C -30.541509,140.84934 -26.88243,128.59833 -28.296823,115.87719 C -31.282514,89.023703 -55.830851,69.105731 -85.448635,67.615851 C -84.904682,63.879059 -84.810789,60.061251 -85.242404,56.179271 C -88.342429,28.297456 -116.68569,8.5182262 -148.50561,12.056108 C -163.66596,13.741703 -176.89737,20.423901 -186.25809,29.962554 C -190.97707,29.435756 -195.87699,29.397013 -200.84886,29.949807 C -212.09257,31.199934 -222.25304,35.214225 -230.58174,41.08484 C -238.22419,15.422708 -266.35065,-1.7561883 -297.56131,1.7139522 z"
         style="opacity:1;fill:#4e9a06;fill-opacity:1;fill-rule:nonzero;stroke:none;stroke-width:0.5;stroke-linecap:butt;stroke-linejoin:miter;marker:none;marker-start:none;marker-mid:none;marker-end:none;stroke-miterlimit:4;stroke-dasharray:none;stroke-dashoffset:0;stroke-opacity:1;visibility:visible;display:inline;overflow:visible;enable-background:accumulate" />
      <path
         transform="translate(10,-160)"
         d="M -297,174.78125 C -299.67085,174.64827 -302.48412,174.7376 -305.40625,175.0625 C -330.79713,177.88558 -346.75936,197.05291 -344.71875,215.40625 C -344.16809,220.35892 -342.49045,224.79972 -339.6875,228.9375 C -336.69636,233.35626 -335.65162,238.8097 -336.79789,244.02107 C -337.94415,249.23245 -341.18078,253.74418 -345.75,256.5 C -346.7962,257.12955 -347.99721,257.9744 -349.34375,258.96875 C -355.90333,263.8093 -364.78534,264.04632 -371.59375,259.5625 C -379.95405,254.05482 -391.22574,251.01377 -403.46875,252.375 C -428.85962,255.19807 -444.82186,274.36541 -442.78125,292.71875 C -441.10713,307.77596 -427.88984,320.4417 -408.71875,323.21875 C -403.50381,323.97122 -398.81716,326.80692 -395.73073,331.07726 C -392.64431,335.3476 -391.42213,340.68728 -392.34375,345.875 C -392.88041,348.88506 -393.29142,351.91213 -393.5625,354.96875 C -394.04092,360.36947 -396.75157,365.32549 -401.04091,368.64186 C -405.33024,371.95823 -410.80901,373.33402 -416.15625,372.4375 C -420.69179,371.67575 -425.47233,371.51393 -430.40625,372.0625 C -455.79709,374.88557 -471.75936,394.05293 -469.71875,412.40625 C -467.75183,430.09679 -449.4051,444.80981 -425.25,443.375 C -419.51726,443.03813 -413.9286,445.25143 -409.98098,449.42204 C -406.03335,453.59266 -404.13019,459.2944 -404.78125,465 C -405.03557,467.21367 -405.02657,469.38733 -404.78125,471.59375 C -402.74141,489.94024 -382.95892,505.13619 -357.5625,502.3125 C -342.20792,500.6053 -329.88249,492.46025 -323.4375,482.59375 C -318.78692,475.46035 -310.03733,472.18084 -301.84375,474.5 C -283.13131,479.80433 -262.67233,481.67696 -241.40625,479.3125 C -215.91427,476.47819 -192.80017,467.94237 -173.5625,455.46875 C -167.63662,451.6165 -160.08754,451.28151 -153.84375,454.59375 C -149.21771,457.05474 -143.32339,458.36974 -136.90625,457.65625 C -125.86647,456.4288 -117.82928,449.62245 -115.09375,443.03125 C -112.72118,437.31763 -107.77233,433.07324 -101.76393,431.5989 C -95.755533,430.12456 -89.404104,431.59609 -84.65625,435.5625 C -77.135634,441.84905 -65.749827,445.71618 -53.125,444.3125 C -30.464835,441.79303 -16.508502,424.85044 -18.28125,408.90625 C -19.57027,397.31272 -28.593829,387.34994 -42.6875,383.34375 C -48.494885,381.69836 -53.209486,377.45041 -55.449081,371.84531 C -57.688676,366.2402 -57.199512,359.91302 -54.125,354.71875 C -50.954906,349.36101 -49.66178,343.85261 -50.3125,338 C -51.090727,331.00057 -54.498795,324.90764 -60.375,319.9375 C -68.073094,313.40825 -69.498154,302.07563 -63.65625,293.84375 C -58.844107,287.0683 -56.771644,279.70639 -57.625,272.03125 C -59.433181,255.76836 -74.932388,242.14271 -96.40625,241.0625 C -101.88256,240.79018 -106.98965,238.21939 -110.47049,233.98288 C -113.95132,229.74638 -115.48263,224.23762 -114.6875,218.8125 C -114.37886,216.69224 -114.34435,214.58685 -114.59375,212.34375 C -116.36723,196.39299 -133.6981,182.88841 -156.34375,185.40625 C -167.12812,186.6053 -176.25038,191.35272 -182.375,197.59375 C -186.55701,201.8607 -192.46784,203.96924 -198.40625,203.3125 C -201.80337,202.93327 -205.25807,202.89995 -208.6875,203.28125 C -216.64326,204.1658 -223.71446,207.01008 -229.375,211 C -234.49433,214.61839 -241.0437,215.5479 -246.96766,213.49682 C -252.89163,211.44574 -257.46408,206.66547 -259.25,200.65625 C -263.27333,187.14655 -277.88024,175.73321 -297,174.78125 z"
         id="path6190"
         style="opacity:1;fill:#73d216;fill-opacity:1;fill-rule:nonzero;stroke:none;stroke-width:0.5;stroke-linecap:butt;stroke-linejoin:miter;marker:none;marker-start:none;marker-mid:none;marker-end:none;stroke-miterlimit:4;stroke-dasharray:none;stroke-dashoffset:0;stroke-opacity:1;visibility:visible;display:inline;overflow:visible;filter:url(#filter6725);enable-background:accumulate"
         inkscape:original="M -296.03125 155.34375 C -299.80222 155.156 -303.66117 155.28498 -307.5625 155.71875 C -342.12553 159.56163 -367.42978 187.27708 -364.0625 217.5625 C -363.15197 225.75192 -360.23385 233.27071 -355.78125 239.84375 C -357.56086 240.91463 -359.26194 242.09826 -360.90625 243.3125 C -373.1688 235.23406 -388.94623 231.17683 -405.625 233.03125 C -440.18803 236.87412 -465.49228 264.58958 -462.125 294.875 C -459.36143 319.73084 -438.13094 338.6111 -411.5 342.46875 C -412.13539 346.03261 -412.61567 349.62118 -412.9375 353.25 C -419.21924 352.19497 -425.81718 351.96878 -432.5625 352.71875 C -467.12551 356.56162 -492.42978 384.27709 -489.0625 414.5625 C -485.81695 443.7531 -457.1142 464.74266 -424.09375 462.78125 C -424.50661 466.37497 -424.53755 470.03951 -424.125 473.75 C -420.75774 504.03541 -389.96927 525.49913 -355.40625 521.65625 C -334.50744 519.33262 -316.99732 508.28424 -307.15625 493.21875 C -286.02 499.21015 -263.00594 501.29754 -239.25 498.65625 C -210.77041 495.48976 -184.76674 485.91497 -162.96875 471.78125 C -154.8557 476.09728 -145.04699 478.14487 -134.75 477 C -117.12481 475.04035 -102.8681 464.33789 -97.125 450.5 C -85.320079 460.36784 -68.697486 465.62741 -50.96875 463.65625 C -19.148827 460.11835 4.162527 434.63181 1.0625 406.75 C -1.1916938 386.47563 -16.795573 370.47479 -37.375 364.625 C -32.267282 355.9925 -29.829281 346.0922 -30.96875 335.84375 C -32.329978 323.60077 -38.560291 312.91934 -47.8125 305.09375 C -40.545369 294.8617 -36.866857 282.59614 -38.28125 269.875 C -41.266942 243.0215 -65.819716 223.11488 -95.4375 221.625 C -94.893551 217.88822 -94.818385 214.06948 -95.25 210.1875 C -98.350028 182.30568 -126.68008 162.52462 -158.5 166.0625 C -173.66034 167.74809 -186.88928 174.4301 -196.25 183.96875 C -200.96898 183.44196 -205.87188 183.3847 -210.84375 183.9375 C -222.08746 185.18762 -232.26505 189.22313 -240.59375 195.09375 C -247.28089 172.63939 -269.63448 156.65803 -296.03125 155.34375 z "
         inkscape:radius="-19.451088"
         sodipodi:type="inkscape:offset" />
      <path
         id="path6820"
         d="M -245.52268,432.50857 C -248.86871,443.54858 -242.20036,454.19445 -241.96018,465.22732 C -241.8732,454.31674 -242.93016,442.59625 -245.52268,432.50857 z M -242.27268,471.28982 C -244.11395,480.92813 -246.21784,490.62795 -249.17893,499.91482 C -245.12256,490.85413 -242.85852,480.88908 -242.21018,470.97732 L -242.27268,471.28982 z"
         style="opacity:0.99647887;fill:#e9b96e;fill-opacity:1;fill-rule:nonzero;stroke:none;stroke-width:0.5;stroke-linecap:butt;stroke-linejoin:miter;marker:none;marker-start:none;marker-mid:none;marker-end:none;stroke-miterlimit:4;stroke-dasharray:none;stroke-dashoffset:0;stroke-opacity:1;visibility:visible;display:inline;overflow:visible;enable-background:accumulate" />
      <path
         id="path6822"
         d="M -209.57601,496.48039 C -216.00145,513.14962 -214.75503,531.57634 -219.51351,548.63664 C -222.71827,573.6567 -230.12535,600.882 -218.23226,624.69914 C -214.97101,628.6531 -217.11253,622.66528 -217.60726,620.76164 C -220.55278,610.63609 -225.38093,600.79341 -223.48837,589.95106 C -222.24091,558.25049 -214.95029,527.25832 -209.41976,496.10539 L -209.57601,496.48039 z"
         style="opacity:0.95;fill:#e9b96e;fill-opacity:1;fill-rule:nonzero;stroke:none;stroke-width:0.5;stroke-linecap:butt;stroke-linejoin:miter;marker:none;marker-start:none;marker-mid:none;marker-end:none;stroke-miterlimit:4;stroke-dasharray:none;stroke-dashoffset:0;stroke-opacity:1;visibility:visible;display:inline;overflow:visible;enable-background:accumulate" />
      <path
         id="path6824"
         d="M -207.78125,437.90625 C -212.87238,450.36229 -209.76303,464.51766 -212.375,477.59375 C -206.25069,501.21301 -193.97283,522.75193 -187.6875,546.34375 C -178.33367,570.57971 -158.86718,589.39919 -149.46875,613.5 C -147.61298,613.21199 -149.85747,609.04069 -150.125,607.5 C -153.70452,596.42489 -161.22269,587.40088 -168.0625,578.375 C -183.93917,555.46624 -191.49469,528.15241 -201.6875,502.46875 C -214.33757,483.37149 -211.13547,459.06267 -207.6875,437.6875 L -207.78125,437.90625 z"
         style="opacity:0.99647887;fill:#e9b96e;fill-opacity:1;fill-rule:nonzero;stroke:none;stroke-width:0.5;stroke-linecap:butt;stroke-linejoin:miter;marker:none;marker-start:none;marker-mid:none;marker-end:none;stroke-miterlimit:4;stroke-dasharray:none;stroke-dashoffset:0;stroke-opacity:1;visibility:visible;display:inline;overflow:visible;enable-background:accumulate" />
      <path
         id="path6826"
         d="M -192.5625,587.8125 C -201.46898,587.91592 -203.73364,599.63476 -200.09375,605.96875 C -196.23606,604.99065 -197.12768,598.02392 -199.28125,595.1875 C -200.58199,592.24102 -195.32181,589.94296 -192.5,589.0625 C -184.31402,587.92697 -181.61375,597.94467 -179.1875,603.75 C -176.70328,609.19489 -175.01366,617.31458 -168.71875,619.3125 C -164.99222,617.31152 -170.67043,613.67664 -172.09375,612.09375 C -175.32309,609.66378 -178.74864,606.60066 -176.46875,602.375 C -175.4658,593.69615 -184.62664,587.29775 -192.5625,587.8125 z"
         style="opacity:0.99647887;fill:#e9b96e;fill-opacity:1;fill-rule:nonzero;stroke:none;stroke-width:0.5;stroke-linecap:butt;stroke-linejoin:miter;marker:none;marker-start:none;marker-mid:none;marker-end:none;stroke-miterlimit:4;stroke-dasharray:none;stroke-dashoffset:0;stroke-opacity:1;visibility:visible;display:inline;overflow:visible;enable-background:accumulate" />
      <path
         id="path6828"
         d="M -257.93382,548.82843 C -259.5245,554.22251 -261.40502,559.48642 -263.59007,564.67218 C -260.74588,559.54341 -257.15877,554.13309 -257.71507,548.04718 L -257.93382,548.82843 z"
         style="opacity:0.99647887;fill:#e9b96e;fill-opacity:1;fill-rule:nonzero;stroke:none;stroke-width:0.5;stroke-linecap:butt;stroke-linejoin:miter;marker:none;marker-start:none;marker-mid:none;marker-end:none;stroke-miterlimit:4;stroke-dasharray:none;stroke-dashoffset:0;stroke-opacity:1;visibility:visible;display:inline;overflow:visible;enable-background:accumulate" />
      <path
         id="path6830"
         d="M -209.09375,564.71875 C -211.78362,569.30498 -214.65024,575.74386 -215.0625,580.125 C -211.49654,575.54828 -210.79968,569.50552 -208.75,564.1875 L -209.09375,564.71875 z"
         style="opacity:0.99647887;fill:#e9b96e;fill-opacity:1;fill-rule:nonzero;stroke:none;stroke-width:0.5;stroke-linecap:butt;stroke-linejoin:miter;marker:none;marker-start:none;marker-mid:none;marker-end:none;stroke-miterlimit:4;stroke-dasharray:none;stroke-dashoffset:0;stroke-opacity:1;visibility:visible;display:inline;overflow:visible;enable-background:accumulate" />
      <path
         sodipodi:nodetypes="ccccccccc"
         style="opacity:0.99647887;fill:#e9b96e;fill-opacity:1;fill-rule:nonzero;stroke:none;stroke-width:0.5;stroke-linecap:butt;stroke-linejoin:miter;marker:none;marker-start:none;marker-mid:none;marker-end:none;stroke-miterlimit:4;stroke-dasharray:none;stroke-dashoffset:0;stroke-opacity:1;visibility:visible;display:inline;overflow:visible;enable-background:accumulate"
         d="M -319.48002,614.71658 C -322.25249,603.46287 -292.27496,583.6028 -293.69735,571.7889 C -285.41251,552.57084 -278.01927,531.69679 -274.59649,510.38221 C -269.50269,488.48566 -258.90187,471.48276 -253.78379,449.70831 C -252.7732,449.96852 -253.99547,453.73718 -254.14116,455.12915 C -256.09045,465.13522 -260.1846,473.28818 -263.90934,481.44282 C -272.55527,502.14028 -276.66976,526.8176 -282.22043,550.02211 C -289.10925,567.27598 -321.30662,595.60231 -319.42897,614.91421 L -319.48002,614.71658 z"
         id="path6874" />
      <path
         id="path6876"
         d="M -194.00504,142.42717 C -221.59856,142.42717 -244.41503,160.51775 -248.00504,183.95842 C -234.6989,166.36554 -208.77609,154.42717 -179.00504,154.42717 C -170.51773,154.42717 -162.35053,155.41233 -154.69254,157.20842 C -164.61312,148.10336 -178.55656,142.42717 -194.00504,142.42717 z"
         style="opacity:0.95;fill:#8ae234;fill-opacity:1;fill-rule:nonzero;stroke:none;stroke-width:0.5;stroke-linecap:butt;stroke-linejoin:miter;marker:none;marker-start:none;marker-mid:none;marker-end:none;stroke-miterlimit:4;stroke-dasharray:none;stroke-dashoffset:0;stroke-opacity:1;visibility:visible;display:inline;overflow:visible;filter:url(#filter7058);enable-background:accumulate" />
      <path
         style="opacity:0.95;fill:#8ae234;fill-opacity:1;fill-rule:nonzero;stroke:none;stroke-width:0.5;stroke-linecap:butt;stroke-linejoin:miter;marker:none;marker-start:none;marker-mid:none;marker-end:none;stroke-miterlimit:4;stroke-dasharray:none;stroke-dashoffset:0;stroke-opacity:1;visibility:visible;display:inline;overflow:visible;filter:url(#filter7062);enable-background:accumulate"
         d="M -254.39957,135.88746 C -277.32291,120.52768 -306.34774,122.85578 -322.37826,140.33078 C -301.53119,133.12227 -273.35037,137.63425 -248.61804,154.20614 C -241.5672,158.93055 -235.33068,164.2952 -229.96858,170.05008 C -233.14183,156.96381 -241.56574,144.48677 -254.39957,135.88746 z"
         id="path6882" />
      <path
         id="path6884"
         d="M -175.60989,118.70261 C -158.65037,105.78986 -137.17674,107.74706 -125.31678,122.43805 C -140.7402,116.37795 -161.5894,120.17111 -179.88728,134.10288 C -185.10375,138.07462 -189.71775,142.58461 -193.68483,147.42266 C -191.33714,136.42121 -185.10483,125.93193 -175.60989,118.70261 z"
         style="opacity:0.95;fill:#8ae234;fill-opacity:1;fill-rule:nonzero;stroke:none;stroke-width:0.5;stroke-linecap:butt;stroke-linejoin:miter;marker:none;marker-start:none;marker-mid:none;marker-end:none;stroke-miterlimit:4;stroke-dasharray:none;stroke-dashoffset:0;stroke-opacity:1;visibility:visible;display:inline;overflow:visible;filter:url(#filter7054);enable-background:accumulate" />
      <path
         transform="matrix(0.8516972,0.5240343,0.5240343,-0.8516972,5.6207801,513.3793)"
         style="opacity:0.95;fill:#4e9a06;fill-opacity:1;fill-rule:nonzero;stroke:none;stroke-width:0.5;stroke-linecap:butt;stroke-linejoin:miter;marker:none;marker-start:none;marker-mid:none;marker-end:none;stroke-miterlimit:4;stroke-dasharray:none;stroke-dashoffset:0;stroke-opacity:1;visibility:visible;display:inline;overflow:visible;filter:url(#filter7058);enable-background:accumulate"
         d="M -194.00504,142.42717 C -221.59856,142.42717 -244.41503,160.51775 -248.00504,183.95842 C -234.6989,166.36554 -208.77609,154.42717 -179.00504,154.42717 C -170.51773,154.42717 -162.35053,155.41233 -154.69254,157.20842 C -164.61312,148.10336 -178.55656,142.42717 -194.00504,142.42717 z"
         id="path7066" />
      <path
         transform="matrix(0.9511703,-0.3086666,-0.3086666,-0.9511703,-3.846703,365.60221)"
         id="path7068"
         d="M -254.39957,135.88746 C -277.32291,120.52768 -306.34774,122.85578 -322.37826,140.33078 C -301.53119,133.12227 -273.35037,137.63425 -248.61804,154.20614 C -241.5672,158.93055 -235.33068,164.2952 -229.96858,170.05008 C -233.14183,156.96381 -241.56574,144.48677 -254.39957,135.88746 z"
         style="opacity:0.95;fill:#4e9a06;fill-opacity:1;fill-rule:nonzero;stroke:none;stroke-width:0.5;stroke-linecap:butt;stroke-linejoin:miter;marker:none;marker-start:none;marker-mid:none;marker-end:none;stroke-miterlimit:4;stroke-dasharray:none;stroke-dashoffset:0;stroke-opacity:1;visibility:visible;display:inline;overflow:visible;filter:url(#filter7062);enable-background:accumulate" />
      <path
         transform="matrix(1,0,0,-1,8,419.06758)"
         style="opacity:0.95;fill:#4e9a06;fill-opacity:1;fill-rule:nonzero;stroke:none;stroke-width:0.5;stroke-linecap:butt;stroke-linejoin:miter;marker:none;marker-start:none;marker-mid:none;marker-end:none;stroke-miterlimit:4;stroke-dasharray:none;stroke-dashoffset:0;stroke-opacity:1;visibility:visible;display:inline;overflow:visible;filter:url(#filter7054);enable-background:accumulate"
         d="M -175.60989,118.70261 C -158.65037,105.78986 -137.17674,107.74706 -125.31678,122.43805 C -140.7402,116.37795 -161.5894,120.17111 -179.88728,134.10288 C -185.10375,138.07462 -189.71775,142.58461 -193.68483,147.42266 C -191.33714,136.42121 -185.10483,125.93193 -175.60989,118.70261 z"
         id="path7070" />
    </g>
  </g>
</svg>
