<?xml version="1.0" encoding="UTF-8" standalone="no"?>
<!-- Created with Inkscape (http://www.inkscape.org/) -->
<svg
   xmlns:dc="http://purl.org/dc/elements/1.1/"
   xmlns:cc="http://creativecommons.org/ns#"
   xmlns:rdf="http://www.w3.org/1999/02/22-rdf-syntax-ns#"
   xmlns:svg="http://www.w3.org/2000/svg"
   xmlns="http://www.w3.org/2000/svg"
   xmlns:xlink="http://www.w3.org/1999/xlink"
   xmlns:sodipodi="http://sodipodi.sourceforge.net/DTD/sodipodi-0.dtd"
   xmlns:inkscape="http://www.inkscape.org/namespaces/inkscape"
   width="256"
   height="255.99997"
   id="svg2"
   sodipodi:version="0.32"
   inkscape:version="0.46"
   sodipodi:docbase="/home/felipe/Documentos/Imagens"
   sodipodi:docname="work.svg"
   inkscape:output_extension="org.inkscape.output.svg.inkscape"
   version="1.0">
  <defs
     id="defs4">
    <inkscape:perspective
       sodipodi:type="inkscape:persp3d"
       inkscape:vp_x="0 : 277.44501 : 1"
       inkscape:vp_y="0 : 1000 : 0"
       inkscape:vp_z="510.44 : 277.44501 : 1"
       inkscape:persp3d-origin="255.22 : 184.96334 : 1"
       id="perspective33" />
    <linearGradient
       id="linearGradient2254">
      <stop
         style="stop-color:#bedcdc;stop-opacity:1;"
         offset="0"
         id="stop2256" />
      <stop
         id="stop2264"
         offset="0.5"
         style="stop-color:#8e9e9e;stop-opacity:0.74149668;" />
      <stop
         style="stop-color:#404f5c;stop-opacity:0.8392157;"
         offset="1"
         id="stop2258" />
    </linearGradient>
    <radialGradient
       inkscape:collect="always"
       xlink:href="#linearGradient2254"
       id="radialGradient2340"
       gradientUnits="userSpaceOnUse"
       gradientTransform="matrix(-0.1055661,-0.930902,0.9936313,-0.1126799,45.963501,812.42287)"
       cx="380"
       cy="389.50504"
       fx="380"
       fy="389.50504"
       r="148.85715" />
    <filter
       inkscape:collect="always"
       id="filter3340">
      <feGaussianBlur
         inkscape:collect="always"
         stdDeviation="3.9590909"
         id="feGaussianBlur3342" />
    </filter>
    <filter
       inkscape:collect="always"
       id="filter3390">
      <feGaussianBlur
         inkscape:collect="always"
         stdDeviation="10.093933"
         id="feGaussianBlur3392" />
    </filter>
    <radialGradient
       inkscape:collect="always"
       xlink:href="#linearGradient2254"
       id="radialGradient3406"
       gradientUnits="userSpaceOnUse"
       gradientTransform="matrix(8.6859486e-2,-0.5807721,0.6221042,9.3576286e-2,261.99206,772.77917)"
       cx="380"
       cy="389.50504"
       fx="380"
       fy="389.50504"
       r="148.85715" />
    <radialGradient
       inkscape:collect="always"
       xlink:href="#linearGradient2254"
       id="radialGradient2420"
       gradientUnits="userSpaceOnUse"
       gradientTransform="matrix(-0.1055661,-0.930902,0.9936313,-0.1126799,45.963501,812.42287)"
       cx="380"
       cy="389.50504"
       fx="380"
       fy="389.50504"
       r="148.85715" />
    <radialGradient
       inkscape:collect="always"
       xlink:href="#linearGradient2254"
       id="radialGradient2422"
       gradientUnits="userSpaceOnUse"
       gradientTransform="matrix(8.6859486e-2,-0.5807721,0.6221042,9.3576286e-2,261.99206,772.77917)"
       cx="380"
       cy="389.50504"
       fx="380"
       fy="389.50504"
       r="148.85715" />
  </defs>
  <sodipodi:namedview
     id="base"
     pagecolor="#ffffff"
     bordercolor="#666666"
     borderopacity="1.0"
     gridtolerance="10000"
     guidetolerance="10"
     objecttolerance="10"
     inkscape:pageopacity="0.0"
     inkscape:pageshadow="2"
     inkscape:zoom="2.0195315"
     inkscape:cx="46.793047"
     inkscape:cy="127.99998"
     inkscape:document-units="px"
     inkscape:current-layer="layer1"
     showguides="true"
     inkscape:guide-bbox="true"
     showgrid="true"
     inkscape:window-width="1526"
     inkscape:window-height="913"
     inkscape:window-x="44"
     inkscape:window-y="58"
     showborder="false"
     inkscape:showpageshadow="false">
    <sodipodi:guide
       orientation="horizontal"
       position="658.57143"
       id="guide2191" />
    <sodipodi:guide
       orientation="vertical"
       position="380"
       id="guide2193" />
    <sodipodi:guide
       orientation="horizontal"
       position="880"
       id="guide2195" />
    <sodipodi:guide
       orientation="horizontal"
       position="460"
       id="guide2197" />
  </sodipodi:namedview>
  <metadata
     id="metadata7">
    <rdf:RDF>
      <cc:Work
         rdf:about="">
        <dc:format>image/svg+xml</dc:format>
        <dc:type
           rdf:resource="http://purl.org/dc/dcmitype/StillImage" />
      </cc:Work>
    </rdf:RDF>
  </metadata>
  <g
     inkscape:label="Layer 1"
     inkscape:groupmode="layer"
     id="layer1"
     transform="translate(-193.51339,-461.53415)">
    <g
       id="g3182">
      <path
         transform="translate(388.11298,514.02157)"
         d="M -35.156666,48.526108 A 50.506763,51.001926 0 1 1 -136.17019,48.526108 A 50.506763,51.001926 0 1 1 -35.156666,48.526108 z"
         sodipodi:ry="51.001926"
         sodipodi:rx="50.506763"
         sodipodi:cy="48.526108"
         sodipodi:cx="-85.663429"
         id="path2408"
         style="fill:#ffffff;fill-opacity:1;stroke:none;stroke-width:16;stroke-linecap:butt;stroke-linejoin:round;stroke-miterlimit:4;stroke-dasharray:none;stroke-dashoffset:72;stroke-opacity:1"
         sodipodi:type="arc" />
      <path
         transform="matrix(0.5931373,0,0,0.5931373,425.8013,623.4359)"
         d="M -35.156666,48.526108 A 50.506763,51.001926 0 1 1 -136.17019,48.526108 A 50.506763,51.001926 0 1 1 -35.156666,48.526108 z"
         sodipodi:ry="51.001926"
         sodipodi:rx="50.506763"
         sodipodi:cy="48.526108"
         sodipodi:cx="-85.663429"
         id="path3180"
         style="fill:#ffffff;fill-opacity:1;stroke:none;stroke-width:16;stroke-linecap:butt;stroke-linejoin:round;stroke-miterlimit:4;stroke-dasharray:none;stroke-dashoffset:72;stroke-opacity:1"
         sodipodi:type="arc" />
      <g
         transform="matrix(0.493359,0,0,0.493359,107.03399,363.53219)"
         id="g2406">
        <path
           id="path3344"
           d="M 417.4375,175.3125 C 415.02989,193.43332 399.52666,207.4375 380.75,207.4375 C 362.92746,207.43751 348.02626,194.83997 344.5,178.0625 C 331.44088,180.8743 318.84697,184.91264 306.8125,190.03125 C 313.40793,206.8016 306.9498,226.34422 290.875,235.625 C 275.94954,244.24221 257.48713,241.30618 245.9375,229.5625 C 237.83753,237.09373 230.29997,245.2531 223.46875,253.96875 C 237.84984,265.13757 242.1412,285.50684 232.78125,301.71875 C 223.85405,317.18111 205.44108,323.79183 189.125,318.40625 C 185.21468,330.42654 182.34593,342.92088 180.65625,355.78125 C 199.39847,357.60659 214.0625,373.40532 214.0625,392.625 C 214.06251,410.72976 201.05024,425.78568 183.875,429 C 185.15295,434.75903 186.63441,440.42917 188.375,446 C 191.73461,445.11557 195.17011,444.70473 198.5625,444.78125 C 211.0701,445.06338 223.13542,451.69333 229.84375,463.3125 C 238.97465,479.1277 235.10741,498.8917 221.5625,510.21875 C 229.12014,520.16655 237.54107,529.42721 246.71875,537.875 C 253.6971,529.42178 263.94671,524.67555 274.5,524.4375 C 281.0516,524.28972 287.69502,525.89236 293.78125,529.40625 C 310.65672,539.14928 316.95246,560.18646 308.65625,577.46875 C 320.13081,582.21944 332.10863,585.98823 344.5,588.65625 C 348.02626,571.87879 362.92747,559.28125 380.75,559.28125 C 399.52665,559.28122 415.02988,573.28542 417.4375,591.40625 C 428.65789,589.87676 439.60231,587.48112 450.1875,584.25 C 444.64994,567.87189 451.23921,549.31695 466.78125,540.34375 C 472.31419,537.14931 478.34185,535.56029 484.3125,535.40625 C 496.31646,535.09655 508.09765,540.65934 515.40625,550.90625 C 526.08052,542.82801 535.96058,533.74407 544.90625,523.8125 C 532.07538,512.37662 528.57093,493.12185 537.5,477.65625 C 544.20834,466.03707 556.27365,459.40712 568.78125,459.125 C 573.77067,459.01246 578.83833,459.91737 583.65625,461.90625 C 587.97945,451.2025 591.44467,440.05483 593.96875,428.5625 C 577.87121,424.5391 565.9375,409.9651 565.9375,392.625 C 565.93753,374.18321 579.44388,358.88357 597.09375,356.0625 C 594.64514,337.2258 589.69694,319.18039 582.59375,302.25 C 565.31629,310.52773 544.30075,304.24215 534.5625,287.375 C 525.45833,271.60611 529.29598,251.9056 542.75,240.5625 C 534.67325,231.86301 525.87282,223.82594 516.4375,216.59375 C 505.08123,229.96662 485.44847,233.76905 469.71875,224.6875 C 454.93528,216.15226 448.25725,198.94231 452.40625,183.1875 C 441.13116,179.60755 429.44601,176.94925 417.4375,175.3125 z M 388.875,309.0625 C 390.15643,309.0625 391.42194,309.09203 392.6875,309.15625 C 397.7497,309.41333 402.6917,310.18335 407.4375,311.40625 C 408.62399,311.71175 409.80593,312.04432 410.96875,312.40625 C 413.2943,313.13061 415.55975,313.96544 417.78125,314.90625 C 418.89205,315.37634 419.98156,315.88165 421.0625,316.40625 C 421.60297,316.66855 422.15451,316.94363 422.6875,317.21875 C 422.762,317.25694 422.8319,317.30531 422.90625,317.34375 C 423.63125,317.71854 424.35165,318.10228 425.0625,318.5 C 425.84516,318.93999 426.60919,319.37827 427.375,319.84375 C 429.41704,321.08578 431.40569,322.41653 433.3125,323.84375 C 434.0276,324.37865 434.74159,324.94041 435.4375,325.5 C 435.86498,325.84454 436.29913,326.17751 436.71875,326.53125 C 437.28531,327.00757 437.82304,327.50731 438.375,328 C 439.40948,328.92341 440.42694,329.86444 441.40625,330.84375 C 442.03647,331.47433 442.643,332.12854 443.25,332.78125 C 443.26011,332.79212 443.27114,332.80162 443.28125,332.8125 C 443.56193,333.11468 443.84938,333.41194 444.125,333.71875 C 444.83235,334.50614 445.51411,335.30783 446.1875,336.125 C 446.37653,336.35439 446.5637,336.58082 446.75,336.8125 C 447.31135,337.50925 447.86987,338.22042 448.40625,338.9375 C 449.07464,339.83269 449.71531,340.73053 450.34375,341.65625 C 451.22165,342.94944 452.07761,344.27517 452.875,345.625 C 453.32939,346.39358 453.76033,347.18273 454.1875,347.96875 C 455.33153,350.07385 456.37232,352.21589 457.3125,354.4375 C 457.72461,355.41063 458.12883,356.381 458.5,357.375 C 458.53791,357.47648 458.55627,357.58581 458.59375,357.6875 C 458.92333,358.58213 459.23555,359.49574 459.53125,360.40625 C 459.57188,360.53129 459.61626,360.65592 459.65625,360.78125 C 459.7713,361.14207 459.8591,361.5118 459.96875,361.875 C 460.23805,362.76698 460.5137,363.65671 460.75,364.5625 C 460.81503,364.81177 460.875,365.06222 460.9375,365.3125 C 461.09757,365.9526 461.23167,366.60345 461.375,367.25 C 461.55187,368.04784 461.72404,368.84902 461.875,369.65625 C 461.88288,369.6984 461.89845,369.73907 461.90625,369.78125 C 461.91964,369.85357 461.92432,369.92761 461.9375,370 C 462.10738,370.93277 462.2716,371.86797 462.40625,372.8125 C 462.41522,372.87547 462.42868,372.93698 462.4375,373 C 462.46643,373.20674 462.47277,373.41772 462.5,373.625 C 462.61459,374.49739 462.7285,375.36839 462.8125,376.25 C 462.91678,377.34564 463.00625,378.45385 463.0625,379.5625 C 463.12569,380.81791 463.15625,382.10398 463.15625,383.375 C 463.15625,385.93786 463.03501,388.44124 462.78125,390.9375 C 462.78021,390.94776 462.78229,390.95849 462.78125,390.96875 C 462.65491,392.20641 462.49893,393.43728 462.3125,394.65625 C 462.31095,394.66642 462.31405,394.67733 462.3125,394.6875 C 462.12558,395.9063 461.90172,397.11391 461.65625,398.3125 C 461.6542,398.32251 461.6583,398.33374 461.65625,398.34375 C 461.53327,398.94298 461.39232,399.53127 461.25,400.125 C 461.11243,400.72006 460.96429,401.31675 460.8125,401.90625 C 460.80999,401.91603 460.81502,401.92772 460.8125,401.9375 C 460.50903,403.11408 460.17146,404.28421 459.8125,405.4375 C 459.80954,405.44703 459.81546,405.45922 459.8125,405.46875 C 459.09069,407.78456 458.24887,410.06865 457.3125,412.28125 C 456.37232,414.50286 455.33153,416.6449 454.1875,418.75 C 454.18311,418.75808 454.19189,418.77317 454.1875,418.78125 C 453.04705,420.87794 451.79911,422.90634 450.46875,424.875 C 450.46387,424.88223 450.47364,424.89902 450.46875,424.90625 C 449.8055,425.887 449.11435,426.8346 448.40625,427.78125 C 448.40115,427.78807 448.41135,427.80568 448.40625,427.8125 C 447.69763,428.7592 446.93946,429.68271 446.1875,430.59375 C 446.18232,430.60003 446.19269,430.61872 446.1875,430.625 C 443.16276,434.28729 439.78826,437.6639 436.125,440.6875 C 432.45597,443.71582 428.49121,446.39968 424.28125,448.6875 C 422.17615,449.83153 420.00286,450.87232 417.78125,451.8125 C 415.55975,452.75257 413.2943,453.58873 410.96875,454.3125 C 409.80593,454.67443 408.62399,455.007 407.4375,455.3125 C 402.6917,456.53437 397.7497,457.30565 392.6875,457.5625 C 391.42194,457.62672 390.15643,457.65625 388.875,457.65625 C 387.59357,457.65625 386.32806,457.62672 385.0625,457.5625 C 380.0003,457.30542 375.0583,456.5354 370.3125,455.3125 C 369.12601,455.007 367.94407,454.67443 366.78125,454.3125 C 364.4557,453.58814 362.19025,452.75331 359.96875,451.8125 C 357.74714,450.87232 355.57385,449.83153 353.46875,448.6875 C 352.41626,448.11513 351.39602,447.49602 350.375,446.875 C 349.35398,446.25399 348.33452,445.60384 347.34375,444.9375 C 346.35569,444.2698 345.39097,443.5882 344.4375,442.875 C 342.53056,441.44859 340.69674,439.94282 338.9375,438.34375 C 338.06344,437.54927 337.2103,436.70979 336.375,435.875 C 335.52908,435.02959 334.71084,434.19768 333.90625,433.3125 C 333.90098,433.3067 333.91152,433.28705 333.90625,433.28125 C 333.10679,432.40121 332.31958,431.51149 331.5625,430.59375 C 330.80535,429.67642 330.05695,428.73472 329.34375,427.78125 C 328.63061,426.82737 327.94889,425.86345 327.28125,424.875 C 325.94585,422.89888 324.70653,420.8551 323.5625,418.75 C 322.41847,416.6449 321.37768,414.50286 320.4375,412.28125 C 320.43374,412.27237 320.44125,412.25888 320.4375,412.25 C 319.97122,411.14776 319.50759,410.03483 319.09375,408.90625 C 319.09037,408.89703 319.09713,408.88423 319.09375,408.875 C 318.67701,407.73712 318.29938,406.60057 317.9375,405.4375 C 317.58339,404.29979 317.26909,403.15969 316.96875,402 C 316.94724,401.91694 316.92747,401.83317 316.90625,401.75 C 316.6368,400.69436 316.37993,399.60411 316.15625,398.53125 C 316.10016,398.26161 316.05315,397.98945 316,397.71875 C 315.8504,396.95819 315.68863,396.20617 315.5625,395.4375 C 315.49939,395.05252 315.43216,394.6682 315.375,394.28125 C 315.3705,394.25083 315.37946,394.21793 315.375,394.1875 C 315.22591,393.17079 315.10726,392.15488 315,391.125 C 314.98148,390.94734 314.95476,390.77178 314.9375,390.59375 C 314.83544,389.53998 314.77604,388.47291 314.71875,387.40625 C 314.71421,387.32183 314.69175,387.24074 314.6875,387.15625 C 314.62329,385.89064 314.59375,384.62518 314.59375,383.34375 C 314.59375,382.06232 314.62328,380.79681 314.6875,379.53125 C 314.74876,378.27824 314.84245,377.02405 314.96875,375.78125 C 314.9698,375.77093 314.9677,375.76032 314.96875,375.75 C 315.09456,374.51221 315.25159,373.28161 315.4375,372.0625 C 315.43906,372.05232 315.43594,372.04143 315.4375,372.03125 C 315.6239,370.81231 315.84879,369.60498 316.09375,368.40625 C 316.09579,368.39629 316.09171,368.38496 316.09375,368.375 C 316.3392,367.1764 316.63502,365.98936 316.9375,364.8125 C 316.94,364.80278 316.93499,364.79097 316.9375,364.78125 C 317.24046,363.60452 317.57903,362.4347 317.9375,361.28125 C 317.94043,361.27182 317.93456,361.25943 317.9375,361.25 C 318.29938,360.08722 318.67701,358.95004 319.09375,357.8125 C 319.40601,356.96021 319.75146,356.11861 320.09375,355.28125 C 320.13263,355.18621 320.17949,355.09483 320.21875,355 C 320.38701,354.59321 320.54351,354.18437 320.71875,353.78125 C 320.98901,353.16026 321.27583,352.5495 321.5625,351.9375 C 321.75888,351.51778 321.95229,351.10291 322.15625,350.6875 C 322.6055,349.7735 323.07663,348.86279 323.5625,347.96875 C 323.56682,347.96081 323.55818,347.94544 323.5625,347.9375 C 324.13445,346.88501 324.72318,345.86477 325.34375,344.84375 C 325.96883,343.81536 326.60844,342.80738 327.28125,341.8125 C 327.94411,340.83157 328.63603,339.88434 329.34375,338.9375 C 329.34863,338.93097 329.33886,338.91278 329.34375,338.90625 C 330.052,337.95937 330.8109,337.03623 331.5625,336.125 C 331.56749,336.11895 331.55751,336.0998 331.5625,336.09375 C 332.31958,335.17649 333.10679,334.2858 333.90625,333.40625 C 336.30485,330.76738 338.87302,328.3027 341.625,326.03125 C 345.29403,323.00293 349.25879,320.31907 353.46875,318.03125 C 355.57385,316.88722 357.74714,315.84643 359.96875,314.90625 C 362.19025,313.96618 364.4557,313.13002 366.78125,312.40625 C 367.94407,312.04432 369.12601,311.71175 370.3125,311.40625 C 375.0583,310.18438 380.0003,309.4131 385.0625,309.15625 C 386.32806,309.09203 387.59357,309.0625 388.875,309.0625 z"
           style="opacity:0.8848485;fill:#000000;fill-opacity:1;stroke:none;stroke-width:0;stroke-miterlimit:4;stroke-opacity:1;filter:url(#filter3390)"
           transform="matrix(0.9588345,0,0,1.0045948,28.865376,22.524257)" />
        <path
           style="opacity:1;fill:#c0c0c0;fill-opacity:1;stroke:none;stroke-width:0;stroke-miterlimit:4;stroke-opacity:1"
           d="M 430.29465,199.59821 C 427.88704,217.71903 412.38381,231.72321 393.60715,231.72321 C 375.78461,231.72322 360.88341,219.12568 357.35715,202.34821 C 344.29803,205.16001 331.70412,209.19835 319.66965,214.31696 C 326.26508,231.08731 319.80695,250.62993 303.73215,259.91071 C 288.80669,268.52792 270.34428,265.59189 258.79465,253.84821 C 250.69468,261.37944 243.15712,269.53881 236.3259,278.25446 C 250.70699,289.42328 254.99835,309.79255 245.6384,326.00446 C 236.7112,341.46682 218.29823,348.07754 201.98215,342.69196 C 198.07183,354.71225 195.20308,367.20659 193.5134,380.06696 C 212.25562,381.8923 226.91965,397.69103 226.91965,416.91071 C 226.91966,435.01547 213.90739,450.07139 196.73215,453.28571 C 198.0101,459.04474 199.49156,464.71488 201.23215,470.28571 C 204.59176,469.40128 208.02726,468.99044 211.41965,469.06696 C 223.92725,469.34909 235.99257,475.97904 242.7009,487.59821 C 251.8318,503.41341 247.96456,523.17741 234.41965,534.50446 C 241.97729,544.45226 250.39822,553.71292 259.5759,562.16071 C 266.55425,553.70749 276.80386,548.96126 287.35715,548.72321 C 293.90875,548.57543 300.55217,550.17807 306.6384,553.69196 C 323.51387,563.43499 329.80961,584.47217 321.5134,601.75446 C 332.98796,606.50515 344.96578,610.27394 357.35715,612.94196 C 360.88341,596.1645 375.78462,583.56696 393.60715,583.56696 C 412.3838,583.56693 427.88703,597.57113 430.29465,615.69196 C 441.51504,614.16247 452.45946,611.76683 463.04465,608.53571 C 457.50709,592.1576 464.09636,573.60266 479.6384,564.62946 C 485.17134,561.43502 491.199,559.846 497.16965,559.69196 C 509.17361,559.38226 520.9548,564.94505 528.2634,575.19196 C 538.93767,567.11372 548.81773,558.02978 557.7634,548.09821 C 544.93253,536.66233 541.42808,517.40756 550.35715,501.94196 C 557.06549,490.32278 569.1308,483.69283 581.6384,483.41071 C 586.62782,483.29817 591.69548,484.20308 596.5134,486.19196 C 600.8366,475.48821 604.30182,464.34054 606.8259,452.84821 C 590.72836,448.82481 578.79465,434.25081 578.79465,416.91071 C 578.79468,398.46892 592.30103,383.16928 609.9509,380.34821 C 607.50229,361.51151 602.55409,343.4661 595.4509,326.53571 C 578.17344,334.81344 557.1579,328.52786 547.41965,311.66071 C 538.31548,295.89182 542.15313,276.19131 555.60715,264.84821 C 547.5304,256.14872 538.72997,248.11165 529.29465,240.87946 C 517.93838,254.25233 498.30562,258.05476 482.5759,248.97321 C 467.79243,240.43797 461.1144,223.22802 465.2634,207.47321 C 453.98831,203.89326 442.30316,201.23496 430.29465,199.59821 z M 401.73215,333.34821 C 403.01358,333.34821 404.27909,333.37774 405.54465,333.44196 C 410.60685,333.69904 415.54885,334.46906 420.29465,335.69196 C 421.48114,335.99746 422.66308,336.33003 423.8259,336.69196 C 426.15145,337.41632 428.4169,338.25115 430.6384,339.19196 C 431.7492,339.66205 432.83871,340.16736 433.91965,340.69196 C 434.46012,340.95426 435.01166,341.22934 435.54465,341.50446 C 435.61915,341.54265 435.68905,341.59102 435.7634,341.62946 C 436.4884,342.00425 437.2088,342.38799 437.91965,342.78571 C 438.70231,343.2257 439.46634,343.66398 440.23215,344.12946 C 442.27419,345.37149 444.26284,346.70224 446.16965,348.12946 C 446.88475,348.66436 447.59874,349.22612 448.29465,349.78571 C 448.72213,350.13025 449.15628,350.46322 449.5759,350.81696 C 450.14246,351.29328 450.68019,351.79302 451.23215,352.28571 C 452.26663,353.20912 453.28409,354.15015 454.2634,355.12946 C 454.89362,355.76004 455.50015,356.41425 456.10715,357.06696 C 456.11726,357.07783 456.12829,357.08733 456.1384,357.09821 C 456.41908,357.40039 456.70653,357.69765 456.98215,358.00446 C 457.6895,358.79185 458.37126,359.59354 459.04465,360.41071 C 459.23368,360.6401 459.42085,360.86653 459.60715,361.09821 C 460.1685,361.79496 460.72702,362.50613 461.2634,363.22321 C 461.93179,364.1184 462.57246,365.01624 463.2009,365.94196 C 464.0788,367.23515 464.93476,368.56088 465.73215,369.91071 C 466.18654,370.67929 466.61748,371.46844 467.04465,372.25446 C 468.18868,374.35956 469.22947,376.5016 470.16965,378.72321 C 470.58176,379.69634 470.98598,380.66671 471.35715,381.66071 C 471.39506,381.76219 471.41342,381.87152 471.4509,381.97321 C 471.78048,382.86784 472.0927,383.78145 472.3884,384.69196 C 472.42903,384.817 472.47341,384.94163 472.5134,385.06696 C 472.62845,385.42778 472.71625,385.79751 472.8259,386.16071 C 473.0952,387.05269 473.37085,387.94242 473.60715,388.84821 C 473.67218,389.09748 473.73215,389.34793 473.79465,389.59821 C 473.95472,390.23831 474.08882,390.88916 474.23215,391.53571 C 474.40902,392.33355 474.58119,393.13473 474.73215,393.94196 C 474.74003,393.98411 474.7556,394.02478 474.7634,394.06696 C 474.77679,394.13928 474.78147,394.21332 474.79465,394.28571 C 474.96453,395.21848 475.12875,396.15368 475.2634,397.09821 C 475.27237,397.16118 475.28583,397.22269 475.29465,397.28571 C 475.32358,397.49245 475.32992,397.70343 475.35715,397.91071 C 475.47174,398.7831 475.58565,399.6541 475.66965,400.53571 C 475.77393,401.63135 475.8634,402.73956 475.91965,403.84821 C 475.98284,405.10362 476.0134,406.38969 476.0134,407.66071 C 476.0134,410.22357 475.89216,412.72695 475.6384,415.22321 C 475.63736,415.23347 475.63944,415.2442 475.6384,415.25446 C 475.51206,416.49212 475.35608,417.72299 475.16965,418.94196 C 475.1681,418.95213 475.1712,418.96304 475.16965,418.97321 C 474.98273,420.19201 474.75887,421.39962 474.5134,422.59821 C 474.51135,422.60822 474.51545,422.61945 474.5134,422.62946 C 474.39042,423.22869 474.24947,423.81698 474.10715,424.41071 C 473.96958,425.00577 473.82144,425.60246 473.66965,426.19196 C 473.66714,426.20174 473.67217,426.21343 473.66965,426.22321 C 473.36618,427.39979 473.02861,428.56992 472.66965,429.72321 C 472.66669,429.73274 472.67261,429.74493 472.66965,429.75446 C 471.94784,432.07027 471.10602,434.35436 470.16965,436.56696 C 469.22947,438.78857 468.18868,440.93061 467.04465,443.03571 C 467.04026,443.04379 467.04904,443.05888 467.04465,443.06696 C 465.9042,445.16365 464.65626,447.19205 463.3259,449.16071 C 463.32102,449.16794 463.33079,449.18473 463.3259,449.19196 C 462.66265,450.17271 461.9715,451.12031 461.2634,452.06696 C 461.2583,452.07378 461.2685,452.09139 461.2634,452.09821 C 460.55478,453.04491 459.79661,453.96842 459.04465,454.87946 C 459.03947,454.88574 459.04984,454.90443 459.04465,454.91071 C 456.01991,458.573 452.64541,461.94961 448.98215,464.97321 C 445.31312,468.00153 441.34836,470.68539 437.1384,472.97321 C 435.0333,474.11724 432.86001,475.15803 430.6384,476.09821 C 428.4169,477.03828 426.15145,477.87444 423.8259,478.59821 C 422.66308,478.96014 421.48114,479.29271 420.29465,479.59821 C 415.54885,480.82008 410.60685,481.59136 405.54465,481.84821 C 404.27909,481.91243 403.01358,481.94196 401.73215,481.94196 C 400.45072,481.94196 399.18521,481.91243 397.91965,481.84821 C 392.85745,481.59113 387.91545,480.82111 383.16965,479.59821 C 381.98316,479.29271 380.80122,478.96014 379.6384,478.59821 C 377.31285,477.87385 375.0474,477.03902 372.8259,476.09821 C 370.60429,475.15803 368.431,474.11724 366.3259,472.97321 C 365.27341,472.40084 364.25317,471.78173 363.23215,471.16071 C 362.21113,470.5397 361.19167,469.88955 360.2009,469.22321 C 359.21284,468.55551 358.24812,467.87391 357.29465,467.16071 C 355.38771,465.7343 353.55389,464.22853 351.79465,462.62946 C 350.92059,461.83498 350.06745,460.9955 349.23215,460.16071 C 348.38623,459.3153 347.56799,458.48339 346.7634,457.59821 C 346.75813,457.59241 346.76867,457.57276 346.7634,457.56696 C 345.96394,456.68692 345.17673,455.7972 344.41965,454.87946 C 343.6625,453.96213 342.9141,453.02043 342.2009,452.06696 C 341.48776,451.11308 340.80604,450.14916 340.1384,449.16071 C 338.803,447.18459 337.56368,445.14081 336.41965,443.03571 C 335.27562,440.93061 334.23483,438.78857 333.29465,436.56696 C 333.29089,436.55808 333.2984,436.54459 333.29465,436.53571 C 332.82837,435.43347 332.36474,434.32054 331.9509,433.19196 C 331.94752,433.18274 331.95428,433.16994 331.9509,433.16071 C 331.53416,432.02283 331.15653,430.88628 330.79465,429.72321 C 330.44054,428.5855 330.12624,427.4454 329.8259,426.28571 C 329.80439,426.20265 329.78462,426.11888 329.7634,426.03571 C 329.49395,424.98007 329.23708,423.88982 329.0134,422.81696 C 328.95731,422.54732 328.9103,422.27516 328.85715,422.00446 C 328.70755,421.2439 328.54578,420.49188 328.41965,419.72321 C 328.35654,419.33823 328.28931,418.95391 328.23215,418.56696 C 328.22765,418.53654 328.23661,418.50364 328.23215,418.47321 C 328.08306,417.4565 327.96441,416.44059 327.85715,415.41071 C 327.83863,415.23305 327.81191,415.05749 327.79465,414.87946 C 327.69259,413.82569 327.63319,412.75862 327.5759,411.69196 C 327.57136,411.60754 327.5489,411.52645 327.54465,411.44196 C 327.48044,410.17635 327.4509,408.91089 327.4509,407.62946 C 327.4509,406.34803 327.48043,405.08252 327.54465,403.81696 C 327.60591,402.56395 327.6996,401.30976 327.8259,400.06696 C 327.82695,400.05664 327.82485,400.04603 327.8259,400.03571 C 327.95171,398.79792 328.10874,397.56732 328.29465,396.34821 C 328.29621,396.33803 328.29309,396.32714 328.29465,396.31696 C 328.48105,395.09802 328.70594,393.89069 328.9509,392.69196 C 328.95294,392.682 328.94886,392.67067 328.9509,392.66071 C 329.19635,391.46211 329.49217,390.27507 329.79465,389.09821 C 329.79715,389.08849 329.79214,389.07668 329.79465,389.06696 C 330.09761,387.89023 330.43618,386.72041 330.79465,385.56696 C 330.79758,385.55753 330.79171,385.54514 330.79465,385.53571 C 331.15653,384.37293 331.53416,383.23575 331.9509,382.09821 C 332.26316,381.24592 332.60861,380.40432 332.9509,379.56696 C 332.98978,379.47192 333.03664,379.38054 333.0759,379.28571 C 333.24416,378.87892 333.40066,378.47008 333.5759,378.06696 C 333.84616,377.44597 334.13298,376.83521 334.41965,376.22321 C 334.61603,375.80349 334.80944,375.38862 335.0134,374.97321 C 335.46265,374.05921 335.93378,373.1485 336.41965,372.25446 C 336.42397,372.24652 336.41533,372.23115 336.41965,372.22321 C 336.9916,371.17072 337.58033,370.15048 338.2009,369.12946 C 338.82598,368.10107 339.46559,367.09309 340.1384,366.09821 C 340.80126,365.11728 341.49318,364.17005 342.2009,363.22321 C 342.20578,363.21668 342.19601,363.19849 342.2009,363.19196 C 342.90915,362.24508 343.66805,361.32194 344.41965,360.41071 C 344.42464,360.40466 344.41466,360.38551 344.41965,360.37946 C 345.17673,359.4622 345.96394,358.57151 346.7634,357.69196 C 349.162,355.05309 351.73017,352.58841 354.48215,350.31696 C 358.15118,347.28864 362.11594,344.60478 366.3259,342.31696 C 368.431,341.17293 370.60429,340.13214 372.8259,339.19196 C 375.0474,338.25189 377.31285,337.41573 379.6384,336.69196 C 380.80122,336.33003 381.98316,335.99746 383.16965,335.69196 C 387.91545,334.47009 392.85745,333.69881 397.91965,333.44196 C 399.18521,333.37774 400.45072,333.34821 401.73215,333.34821 z"
           id="path2274" />
        <path
           style="opacity:0.79393939;fill:#a9a9a9;fill-opacity:1;stroke:none;stroke-width:0;stroke-miterlimit:4;stroke-opacity:1"
           d="M 401.71653,236.50446 C 307.24566,236.50447 230.59153,313.18985 230.59153,407.66071 C 230.59153,502.13156 307.24568,578.78571 401.71653,578.78571 C 496.18737,578.78574 572.87277,502.13156 572.87277,407.66071 C 572.87277,313.18985 496.18739,236.50446 401.71653,236.50446 z M 401.74777,333.34821 C 403.02921,333.34821 404.29472,333.37774 405.56027,333.44196 C 410.62248,333.69904 415.56448,334.46906 420.31027,335.69196 C 421.49676,335.99746 422.6787,336.33003 423.84153,336.69196 C 426.16708,337.41632 428.43253,338.25115 430.65403,339.19196 C 433.98643,340.60223 437.18453,342.26755 440.24777,344.12946 C 442.28981,345.37149 444.27846,346.70224 446.18527,348.12946 C 449.04569,350.26907 451.75795,352.60839 454.27903,355.12946 C 459.32074,360.17411 463.62854,365.937 467.06027,372.25446 C 468.2043,374.35956 469.2451,376.5016 470.18527,378.72321 C 473.48213,386.50826 475.48528,394.97897 475.93527,403.84821 C 475.99847,405.10362 476.02903,406.38969 476.02903,407.66071 C 476.02903,410.22357 475.90778,412.72695 475.65403,415.22321 C 475.65299,415.23347 475.65506,415.2442 475.65403,415.25446 C 475.52768,416.49212 475.3717,417.72299 475.18527,418.94196 C 475.18372,418.95213 475.18683,418.96304 475.18527,418.97321 C 474.99836,420.19201 474.7745,421.39962 474.52903,422.59821 C 474.52698,422.60822 474.53107,422.61945 474.52903,422.62946 C 474.28306,423.82792 473.98827,425.01525 473.68527,426.19196 C 473.68277,426.20174 473.6878,426.21343 473.68527,426.22321 C 473.3818,427.39979 473.04424,428.56992 472.68527,429.72321 C 472.68232,429.73274 472.68823,429.74493 472.68527,429.75446 C 471.2387,434.39551 469.34369,438.83404 467.06027,443.03571 C 467.05588,443.04379 467.06467,443.05888 467.06027,443.06696 C 465.91983,445.16365 464.67188,447.19205 463.34153,449.16071 C 463.33664,449.16794 463.34641,449.18473 463.34153,449.19196 C 462.67827,450.17271 461.98713,451.12031 461.27903,452.06696 C 461.27392,452.07378 461.28413,452.09139 461.27903,452.09821 C 460.57041,453.04491 459.81223,453.96842 459.06027,454.87946 C 459.0551,454.88574 459.06547,454.90443 459.06027,454.91071 C 457.55041,456.73883 455.95419,458.48554 454.27903,460.16071 C 453.43361,461.00663 452.57045,461.82488 451.68527,462.62946 C 450.80566,463.42899 449.9151,464.21606 448.99777,464.97321 C 445.32874,468.00153 441.36399,470.68539 437.15403,472.97321 C 435.04893,474.11724 432.87563,475.15803 430.65403,476.09821 C 428.43253,477.03828 426.16708,477.87444 423.84153,478.59821 C 422.6787,478.96014 421.49676,479.29271 420.31027,479.59821 C 415.56448,480.82008 410.62248,481.59136 405.56027,481.84821 C 404.29472,481.91243 403.02921,481.94196 401.74777,481.94196 C 400.46634,481.94196 399.20083,481.91243 397.93527,481.84821 C 392.87307,481.59113 387.93107,480.82111 383.18527,479.59821 C 381.99879,479.29271 380.81685,478.96014 379.65403,478.59821 C 377.32847,477.87385 375.06302,477.03902 372.84153,476.09821 C 369.50912,474.68794 366.31102,473.02262 363.24777,471.16071 C 361.20574,469.91868 359.21709,468.58793 357.31027,467.16071 C 353.4901,464.30319 349.98132,461.09226 346.77903,457.56696 C 345.97956,456.68692 345.19235,455.7972 344.43527,454.87946 C 341.40668,451.21015 338.72333,447.24591 336.43527,443.03571 C 335.29125,440.93061 334.25045,438.78857 333.31027,436.56696 C 333.30652,436.55808 333.31403,436.54459 333.31027,436.53571 C 332.844,435.43347 332.38036,434.32054 331.96653,433.19196 C 331.96315,433.18274 331.9699,433.16994 331.96653,433.16071 C 331.54978,432.02283 331.17215,430.88628 330.81027,429.72321 C 328.99771,423.89967 327.87931,417.78072 327.56027,411.44196 C 327.49606,410.17635 327.46653,408.91089 327.46653,407.62946 C 327.46653,405.056 327.58569,402.54199 327.84153,400.03571 C 327.96734,398.79792 328.12437,397.56732 328.31027,396.34821 C 328.31183,396.33803 328.30872,396.32714 328.31027,396.31696 C 328.49667,395.09802 328.72157,393.89069 328.96653,392.69196 C 328.96857,392.682 328.96448,392.67067 328.96653,392.66071 C 329.21198,391.46211 329.50779,390.27507 329.81027,389.09821 C 329.81277,389.08849 329.80777,389.07668 329.81027,389.06696 C 330.11323,387.89023 330.4518,386.72041 330.81027,385.56696 C 330.8132,385.55753 330.80733,385.54514 330.81027,385.53571 C 331.17215,384.37293 331.54978,383.23575 331.96653,382.09821 C 333.22004,378.67685 334.7138,375.38811 336.43527,372.22321 C 337.00723,371.17072 337.59596,370.15048 338.21653,369.12946 C 338.84161,368.10107 339.48121,367.09309 340.15403,366.09821 C 340.81689,365.11728 341.50881,364.17005 342.21653,363.22321 C 342.22141,363.21668 342.21164,363.19849 342.21653,363.19196 C 342.92478,362.24508 343.68368,361.32194 344.43527,360.41071 C 344.44027,360.40466 344.43028,360.38551 344.43527,360.37946 C 345.19235,359.4622 345.97956,358.57151 346.77903,357.69196 C 347.57856,356.81234 348.37617,355.96982 349.21653,355.12946 C 350.06194,354.28354 350.9251,353.46529 351.81027,352.66071 C 352.68989,351.86118 353.58045,351.07411 354.49777,350.31696 C 358.16681,347.28864 362.13156,344.60478 366.34153,342.31696 C 368.44662,341.17293 370.61992,340.13214 372.84153,339.19196 C 375.06302,338.25189 377.32847,337.41573 379.65403,336.69196 C 380.81685,336.33003 381.99879,335.99746 383.18527,335.69196 C 387.93107,334.47009 392.87307,333.69881 397.93527,333.44196 C 399.20083,333.37774 400.46634,333.34821 401.74777,333.34821 z"
           id="path2249" />
        <path
           style="opacity:0.79393939;fill:url(#radialGradient2420);fill-opacity:1;stroke:none;stroke-width:0;stroke-miterlimit:4;stroke-opacity:1"
           d="M 401.71653,258.78571 C 319.54737,258.7857 252.87277,325.49156 252.87277,407.66071 C 252.87277,489.82985 319.54738,556.50446 401.71653,556.50446 C 483.88567,556.50448 550.59153,489.82985 550.59153,407.66071 C 550.59153,325.49156 483.88568,258.78571 401.71653,258.78571 z M 401.74777,333.34821 C 442.75349,333.3482 476.02903,366.655 476.02903,407.66071 C 476.02903,448.66642 442.75349,481.94196 401.74777,481.94196 C 360.74206,481.94197 327.46653,448.63517 327.46653,407.62946 C 327.46652,366.62375 360.74206,333.34821 401.74777,333.34821 z"
           id="path2252" />
        <path
           id="path3318"
           d="M 388.875,274.48438 C 328.776,274.48438 279.99999,323.24992 280,383.34026 C 280,443.43061 328.77602,492.23438 388.875,492.23438 C 448.974,492.23438 497.75001,443.46883 497.75,383.37849 L 497.75,383.34026 C 497.75,323.24992 448.97401,274.48438 388.875,274.48438 z M 388.875,299.13748 C 435.44961,299.13749 473.2493,336.87746 473.2493,383.37849 C 473.24928,429.8795 435.4496,467.58127 388.875,467.58127 C 342.30041,467.58127 304.5007,429.84129 304.5007,383.34026 C 304.50069,336.83923 342.3004,299.13748 388.875,299.13748 z"
           style="opacity:0.58787878;fill:#696969;fill-opacity:1;stroke:none;stroke-width:0;stroke-miterlimit:4;stroke-dasharray:none;stroke-opacity:1;filter:url(#filter3340)"
           transform="matrix(0.836969,0,0,0.8357952,76.255823,87.235182)" />
        <path
           style="opacity:1;fill:#c0c0c0;fill-opacity:1;stroke:none;stroke-width:0;stroke-miterlimit:4;stroke-dasharray:none;stroke-opacity:1"
           d="M 401.73215,318.62946 C 352.67315,318.62946 312.85714,358.49991 312.85715,407.62946 C 312.85715,456.75901 352.67317,496.66071 401.73215,496.66071 C 450.79115,496.66071 490.60716,456.79026 490.60715,407.66071 L 490.60715,407.62946 C 490.60715,358.49991 450.79116,318.62946 401.73215,318.62946 z M 401.73215,338.78571 C 439.75115,338.78572 470.60715,369.64172 470.60715,407.66071 C 470.60714,445.67969 439.75114,476.50446 401.73215,476.50446 C 363.71317,476.50446 332.85715,445.64845 332.85715,407.62946 C 332.85714,369.61046 363.71316,338.78571 401.73215,338.78571 z"
           id="path3313" />
        <path
           transform="matrix(0.5826793,0.1561284,-0.162966,0.6081974,379.73948,291.77807)"
           style="opacity:0.8848485;fill:#000000;fill-opacity:1;stroke:none;stroke-width:0;stroke-miterlimit:4;stroke-opacity:1;filter:url(#filter3390)"
           d="M 417.4375,175.3125 C 415.02989,193.43332 399.52666,207.4375 380.75,207.4375 C 362.92746,207.43751 348.02626,194.83997 344.5,178.0625 C 331.44088,180.8743 318.84697,184.91264 306.8125,190.03125 C 313.40793,206.8016 306.9498,226.34422 290.875,235.625 C 275.94954,244.24221 257.48713,241.30618 245.9375,229.5625 C 237.83753,237.09373 230.29997,245.2531 223.46875,253.96875 C 237.84984,265.13757 242.1412,285.50684 232.78125,301.71875 C 223.85405,317.18111 205.44108,323.79183 189.125,318.40625 C 185.21468,330.42654 182.34593,342.92088 180.65625,355.78125 C 199.39847,357.60659 214.0625,373.40532 214.0625,392.625 C 214.06251,410.72976 201.05024,425.78568 183.875,429 C 185.15295,434.75903 186.63441,440.42917 188.375,446 C 191.73461,445.11557 195.17011,444.70473 198.5625,444.78125 C 211.0701,445.06338 223.13542,451.69333 229.84375,463.3125 C 238.97465,479.1277 235.10741,498.8917 221.5625,510.21875 C 229.12014,520.16655 237.54107,529.42721 246.71875,537.875 C 253.6971,529.42178 263.94671,524.67555 274.5,524.4375 C 281.0516,524.28972 287.69502,525.89236 293.78125,529.40625 C 310.65672,539.14928 316.95246,560.18646 308.65625,577.46875 C 320.13081,582.21944 332.10863,585.98823 344.5,588.65625 C 348.02626,571.87879 362.92747,559.28125 380.75,559.28125 C 399.52665,559.28122 415.02988,573.28542 417.4375,591.40625 C 428.65789,589.87676 439.60231,587.48112 450.1875,584.25 C 444.64994,567.87189 451.23921,549.31695 466.78125,540.34375 C 472.31419,537.14931 478.34185,535.56029 484.3125,535.40625 C 496.31646,535.09655 508.09765,540.65934 515.40625,550.90625 C 526.08052,542.82801 535.96058,533.74407 544.90625,523.8125 C 532.07538,512.37662 528.57093,493.12185 537.5,477.65625 C 544.20834,466.03707 556.27365,459.40712 568.78125,459.125 C 573.77067,459.01246 578.83833,459.91737 583.65625,461.90625 C 587.97945,451.2025 591.44467,440.05483 593.96875,428.5625 C 577.87121,424.5391 565.9375,409.9651 565.9375,392.625 C 565.93753,374.18321 579.44388,358.88357 597.09375,356.0625 C 594.64514,337.2258 589.69694,319.18039 582.59375,302.25 C 565.31629,310.52773 544.30075,304.24215 534.5625,287.375 C 525.45833,271.60611 529.29598,251.9056 542.75,240.5625 C 534.67325,231.86301 525.87282,223.82594 516.4375,216.59375 C 505.08123,229.96662 485.44847,233.76905 469.71875,224.6875 C 454.93528,216.15226 448.25725,198.94231 452.40625,183.1875 C 441.13116,179.60755 429.44601,176.94925 417.4375,175.3125 z M 388.875,309.0625 C 390.15643,309.0625 391.42194,309.09203 392.6875,309.15625 C 397.7497,309.41333 402.6917,310.18335 407.4375,311.40625 C 408.62399,311.71175 409.80593,312.04432 410.96875,312.40625 C 413.2943,313.13061 415.55975,313.96544 417.78125,314.90625 C 418.89205,315.37634 419.98156,315.88165 421.0625,316.40625 C 421.60297,316.66855 422.15451,316.94363 422.6875,317.21875 C 422.762,317.25694 422.8319,317.30531 422.90625,317.34375 C 423.63125,317.71854 424.35165,318.10228 425.0625,318.5 C 425.84516,318.93999 426.60919,319.37827 427.375,319.84375 C 429.41704,321.08578 431.40569,322.41653 433.3125,323.84375 C 434.0276,324.37865 434.74159,324.94041 435.4375,325.5 C 435.86498,325.84454 436.29913,326.17751 436.71875,326.53125 C 437.28531,327.00757 437.82304,327.50731 438.375,328 C 439.40948,328.92341 440.42694,329.86444 441.40625,330.84375 C 442.03647,331.47433 442.643,332.12854 443.25,332.78125 C 443.26011,332.79212 443.27114,332.80162 443.28125,332.8125 C 443.56193,333.11468 443.84938,333.41194 444.125,333.71875 C 444.83235,334.50614 445.51411,335.30783 446.1875,336.125 C 446.37653,336.35439 446.5637,336.58082 446.75,336.8125 C 447.31135,337.50925 447.86987,338.22042 448.40625,338.9375 C 449.07464,339.83269 449.71531,340.73053 450.34375,341.65625 C 451.22165,342.94944 452.07761,344.27517 452.875,345.625 C 453.32939,346.39358 453.76033,347.18273 454.1875,347.96875 C 455.33153,350.07385 456.37232,352.21589 457.3125,354.4375 C 457.72461,355.41063 458.12883,356.381 458.5,357.375 C 458.53791,357.47648 458.55627,357.58581 458.59375,357.6875 C 458.92333,358.58213 459.23555,359.49574 459.53125,360.40625 C 459.57188,360.53129 459.61626,360.65592 459.65625,360.78125 C 459.7713,361.14207 459.8591,361.5118 459.96875,361.875 C 460.23805,362.76698 460.5137,363.65671 460.75,364.5625 C 460.81503,364.81177 460.875,365.06222 460.9375,365.3125 C 461.09757,365.9526 461.23167,366.60345 461.375,367.25 C 461.55187,368.04784 461.72404,368.84902 461.875,369.65625 C 461.88288,369.6984 461.89845,369.73907 461.90625,369.78125 C 461.91964,369.85357 461.92432,369.92761 461.9375,370 C 462.10738,370.93277 462.2716,371.86797 462.40625,372.8125 C 462.41522,372.87547 462.42868,372.93698 462.4375,373 C 462.46643,373.20674 462.47277,373.41772 462.5,373.625 C 462.61459,374.49739 462.7285,375.36839 462.8125,376.25 C 462.91678,377.34564 463.00625,378.45385 463.0625,379.5625 C 463.12569,380.81791 463.15625,382.10398 463.15625,383.375 C 463.15625,385.93786 463.03501,388.44124 462.78125,390.9375 C 462.78021,390.94776 462.78229,390.95849 462.78125,390.96875 C 462.65491,392.20641 462.49893,393.43728 462.3125,394.65625 C 462.31095,394.66642 462.31405,394.67733 462.3125,394.6875 C 462.12558,395.9063 461.90172,397.11391 461.65625,398.3125 C 461.6542,398.32251 461.6583,398.33374 461.65625,398.34375 C 461.53327,398.94298 461.39232,399.53127 461.25,400.125 C 461.11243,400.72006 460.96429,401.31675 460.8125,401.90625 C 460.80999,401.91603 460.81502,401.92772 460.8125,401.9375 C 460.50903,403.11408 460.17146,404.28421 459.8125,405.4375 C 459.80954,405.44703 459.81546,405.45922 459.8125,405.46875 C 459.09069,407.78456 458.24887,410.06865 457.3125,412.28125 C 456.37232,414.50286 455.33153,416.6449 454.1875,418.75 C 454.18311,418.75808 454.19189,418.77317 454.1875,418.78125 C 453.04705,420.87794 451.79911,422.90634 450.46875,424.875 C 450.46387,424.88223 450.47364,424.89902 450.46875,424.90625 C 449.8055,425.887 449.11435,426.8346 448.40625,427.78125 C 448.40115,427.78807 448.41135,427.80568 448.40625,427.8125 C 447.69763,428.7592 446.93946,429.68271 446.1875,430.59375 C 446.18232,430.60003 446.19269,430.61872 446.1875,430.625 C 443.16276,434.28729 439.78826,437.6639 436.125,440.6875 C 432.45597,443.71582 428.49121,446.39968 424.28125,448.6875 C 422.17615,449.83153 420.00286,450.87232 417.78125,451.8125 C 415.55975,452.75257 413.2943,453.58873 410.96875,454.3125 C 409.80593,454.67443 408.62399,455.007 407.4375,455.3125 C 402.6917,456.53437 397.7497,457.30565 392.6875,457.5625 C 391.42194,457.62672 390.15643,457.65625 388.875,457.65625 C 387.59357,457.65625 386.32806,457.62672 385.0625,457.5625 C 380.0003,457.30542 375.0583,456.5354 370.3125,455.3125 C 369.12601,455.007 367.94407,454.67443 366.78125,454.3125 C 364.4557,453.58814 362.19025,452.75331 359.96875,451.8125 C 357.74714,450.87232 355.57385,449.83153 353.46875,448.6875 C 352.41626,448.11513 351.39602,447.49602 350.375,446.875 C 349.35398,446.25399 348.33452,445.60384 347.34375,444.9375 C 346.35569,444.2698 345.39097,443.5882 344.4375,442.875 C 342.53056,441.44859 340.69674,439.94282 338.9375,438.34375 C 338.06344,437.54927 337.2103,436.70979 336.375,435.875 C 335.52908,435.02959 334.71084,434.19768 333.90625,433.3125 C 333.90098,433.3067 333.91152,433.28705 333.90625,433.28125 C 333.10679,432.40121 332.31958,431.51149 331.5625,430.59375 C 330.80535,429.67642 330.05695,428.73472 329.34375,427.78125 C 328.63061,426.82737 327.94889,425.86345 327.28125,424.875 C 325.94585,422.89888 324.70653,420.8551 323.5625,418.75 C 322.41847,416.6449 321.37768,414.50286 320.4375,412.28125 C 320.43374,412.27237 320.44125,412.25888 320.4375,412.25 C 319.97122,411.14776 319.50759,410.03483 319.09375,408.90625 C 319.09037,408.89703 319.09713,408.88423 319.09375,408.875 C 318.67701,407.73712 318.29938,406.60057 317.9375,405.4375 C 317.58339,404.29979 317.26909,403.15969 316.96875,402 C 316.94724,401.91694 316.92747,401.83317 316.90625,401.75 C 316.6368,400.69436 316.37993,399.60411 316.15625,398.53125 C 316.10016,398.26161 316.05315,397.98945 316,397.71875 C 315.8504,396.95819 315.68863,396.20617 315.5625,395.4375 C 315.49939,395.05252 315.43216,394.6682 315.375,394.28125 C 315.3705,394.25083 315.37946,394.21793 315.375,394.1875 C 315.22591,393.17079 315.10726,392.15488 315,391.125 C 314.98148,390.94734 314.95476,390.77178 314.9375,390.59375 C 314.83544,389.53998 314.77604,388.47291 314.71875,387.40625 C 314.71421,387.32183 314.69175,387.24074 314.6875,387.15625 C 314.62329,385.89064 314.59375,384.62518 314.59375,383.34375 C 314.59375,382.06232 314.62328,380.79681 314.6875,379.53125 C 314.74876,378.27824 314.84245,377.02405 314.96875,375.78125 C 314.9698,375.77093 314.9677,375.76032 314.96875,375.75 C 315.09456,374.51221 315.25159,373.28161 315.4375,372.0625 C 315.43906,372.05232 315.43594,372.04143 315.4375,372.03125 C 315.6239,370.81231 315.84879,369.60498 316.09375,368.40625 C 316.09579,368.39629 316.09171,368.38496 316.09375,368.375 C 316.3392,367.1764 316.63502,365.98936 316.9375,364.8125 C 316.94,364.80278 316.93499,364.79097 316.9375,364.78125 C 317.24046,363.60452 317.57903,362.4347 317.9375,361.28125 C 317.94043,361.27182 317.93456,361.25943 317.9375,361.25 C 318.29938,360.08722 318.67701,358.95004 319.09375,357.8125 C 319.40601,356.96021 319.75146,356.11861 320.09375,355.28125 C 320.13263,355.18621 320.17949,355.09483 320.21875,355 C 320.38701,354.59321 320.54351,354.18437 320.71875,353.78125 C 320.98901,353.16026 321.27583,352.5495 321.5625,351.9375 C 321.75888,351.51778 321.95229,351.10291 322.15625,350.6875 C 322.6055,349.7735 323.07663,348.86279 323.5625,347.96875 C 323.56682,347.96081 323.55818,347.94544 323.5625,347.9375 C 324.13445,346.88501 324.72318,345.86477 325.34375,344.84375 C 325.96883,343.81536 326.60844,342.80738 327.28125,341.8125 C 327.94411,340.83157 328.63603,339.88434 329.34375,338.9375 C 329.34863,338.93097 329.33886,338.91278 329.34375,338.90625 C 330.052,337.95937 330.8109,337.03623 331.5625,336.125 C 331.56749,336.11895 331.55751,336.0998 331.5625,336.09375 C 332.31958,335.17649 333.10679,334.2858 333.90625,333.40625 C 336.30485,330.76738 338.87302,328.3027 341.625,326.03125 C 345.29403,323.00293 349.25879,320.31907 353.46875,318.03125 C 355.57385,316.88722 357.74714,315.84643 359.96875,314.90625 C 362.19025,313.96618 364.4557,313.13002 366.78125,312.40625 C 367.94407,312.04432 369.12601,311.71175 370.3125,311.40625 C 375.0583,310.18438 380.0003,309.4131 385.0625,309.15625 C 386.32806,309.09203 387.59357,309.0625 388.875,309.0625 z"
           id="path3394" />
        <path
           id="path3396"
           d="M 594.96114,464.34674 C 590.55847,474.92533 578.86547,480.87928 567.45497,477.82184 C 556.6243,474.91977 549.61249,464.86664 550.19124,454.13512 C 541.79915,453.71099 533.49079,454.10518 525.34715,455.24447 C 526.63467,466.47145 519.53987,477.25127 508.26576,480.25252 C 497.79774,483.03917 487.05449,478.25539 481.94091,469.26495 C 475.79687,472.50553 469.89272,476.21799 464.32755,480.38225 C 471.25506,489.48572 470.55859,502.51637 462.24068,510.80721 C 454.30735,518.71475 442.04548,519.71876 433.00392,513.80148 C 428.6777,520.44203 424.90754,527.53917 421.79451,535.04991 C 432.88796,539.20682 439.23634,551.15939 436.11851,562.79528 C 433.18155,573.75619 422.83168,580.75247 411.87294,579.9018 C 411.71531,583.5965 411.69577,587.27052 411.84981,590.92661 C 414.0349,590.93821 416.18929,591.24889 418.23842,591.8476 C 425.79346,594.05504 432.04998,600.03353 434.24173,608.16028 C 437.22499,619.22185 431.66875,630.55758 421.6001,635.20961 C 424.5791,642.46279 428.19419,649.44054 432.40101,656.04937 C 438.01302,652.06795 445.0116,650.86348 451.46339,652.43776 C 455.46875,653.4151 459.24594,655.46712 462.37449,658.58552 C 471.04911,667.23195 471.46234,680.99333 463.61723,690.10542 C 469.8196,694.84999 476.4871,699.08203 483.58446,702.715 C 488.44901,693.13185 499.54798,687.93148 510.37866,690.83355 C 521.78915,693.89096 528.93862,704.89375 527.46214,716.25642 C 534.52883,717.15748 541.56833,717.48921 548.52506,717.25664 C 547.81677,706.43939 554.83103,696.27888 565.7315,693.37709 C 569.61205,692.34406 573.5328,692.36354 577.18613,693.24249 C 584.53112,695.00962 590.78809,700.29576 593.56724,707.68947 C 601.3644,704.5369 608.84207,700.64612 615.88941,696.09003 C 609.94729,687.0773 610.94117,674.84953 618.87617,666.94035 C 624.83766,660.99823 633.24521,658.94897 640.89179,660.8148 C 643.9421,661.5591 646.8749,662.93212 649.48009,664.92074 C 653.84364,659.14446 657.75782,652.95974 661.15599,646.41311 C 652.02626,641.35609 647.1384,630.58958 649.95133,620.09161 C 652.94298,608.92667 663.63265,601.86329 674.81602,603.02932 C 676.38372,591.22657 676.30406,579.49588 674.73394,568.08933 C 662.89169,570.28749 651.1403,563.0601 647.95861,551.26278 C 644.98409,540.23359 650.51203,528.93149 660.52807,524.25493 C 657.0311,517.67298 652.9869,511.37423 648.42631,505.45937 C 639.3558,511.70636 626.80822,510.81158 618.72257,502.75218 C 611.12331,495.17759 609.85691,483.67103 614.934,474.80841 C 608.66292,470.80511 601.99313,467.29302 594.96114,464.34674 z M 555.90683,540.67021 C 556.68555,540.87887 557.4498,541.10281 558.20846,541.34776 C 561.24303,542.32769 564.12135,543.59859 566.80696,545.11171 C 567.47843,545.48987 568.14274,545.88367 568.79067,546.29213 C 570.08639,547.10934 571.32766,547.98365 572.52504,548.91496 C 573.12381,549.38043 573.70393,549.86376 574.27571,550.35737 C 574.5616,550.60418 574.85214,550.86053 575.13141,551.11388 C 575.17049,551.14912 575.20512,551.18979 575.24407,551.22517 C 575.62385,551.57013 575.99939,551.91976 576.36684,552.27629 C 576.77109,552.6701 577.16429,553.05985 577.55415,553.46636 C 578.59362,554.55081 579.58623,555.68029 580.51347,556.85484 C 580.86126,557.29511 581.20402,557.75148 581.53613,558.20358 C 581.74003,558.48177 581.94984,558.75405 582.14746,559.03653 C 582.41448,559.41716 582.6602,559.80727 582.91569,560.19543 C 583.39455,560.92292 583.86019,561.65832 584.29646,562.41066 C 584.57714,562.89505 584.8396,563.38988 585.10259,563.88388 C 585.10697,563.89211 585.11213,563.89965 585.11651,563.90789 C 585.23806,564.13654 585.36452,564.3633 585.48224,564.59393 C 585.78436,565.18581 586.06862,565.78218 586.34527,566.38655 C 586.42293,566.55621 586.49994,566.72377 586.57558,566.89437 C 586.80368,567.4076 587.02772,567.92909 587.23735,568.45057 C 587.49831,569.10136 587.74199,569.74925 587.97372,570.41203 C 588.29744,571.33789 588.60254,572.27989 588.86813,573.22694 C 589.01959,573.76624 589.15345,574.31417 589.28553,574.8596 C 589.63927,576.32035 589.92426,577.78664 590.13522,579.28473 C 590.22779,579.94098 590.31602,580.59427 590.38033,581.2565 C 590.3869,581.32411 590.38033,581.3933 590.38661,581.46096 C 590.44176,582.05624 590.48329,582.6602 590.51529,583.25959 C 590.51969,583.3419 590.52644,583.42459 590.53042,583.50697 C 590.5418,583.74415 590.53518,583.98229 590.54289,584.22003 C 590.56185,584.8039 590.58503,585.38744 590.58168,585.97429 C 590.58077,586.1358 590.57658,586.29718 590.57396,586.45889 C 590.5674,586.87248 590.54331,587.28835 590.52553,587.70312 C 590.50359,588.21495 590.47824,588.72803 590.43903,589.24132 C 590.43698,589.26811 590.43985,589.29527 590.43775,589.32208 C 590.43415,589.36805 590.42499,589.41364 590.42125,589.45961 C 590.37317,590.05198 590.32126,590.64491 590.24986,591.23867 C 590.2451,591.27825 590.24329,591.31768 590.23843,591.35727 C 590.22248,591.48714 590.1921,591.6159 590.17502,591.74583 C 590.10315,592.29265 590.03107,592.83852 589.9391,593.38594 C 589.82474,594.06623 589.69933,594.75173 589.55367,595.43208 C 589.38842,596.20242 589.19836,596.986 588.99217,597.75549 C 588.57643,599.30709 588.09665,600.80293 587.5375,602.27289 C 587.5352,602.27893 587.53472,602.28576 587.53243,602.2918 C 587.25488,603.02053 586.96042,603.74032 586.64938,604.44795 C 586.64679,604.45385 586.64691,604.46097 586.64431,604.46686 C 586.333,605.17431 586.00107,605.86897 585.65746,606.55464 C 585.65459,606.56037 585.65526,606.56783 585.65239,606.57356 C 585.48045,606.91632 585.29937,607.24952 585.11656,607.58581 C 584.93643,607.92366 584.74961,608.26079 584.56174,608.59297 C 584.55862,608.59848 584.55979,608.60637 584.55667,608.61188 C 584.18139,609.27479 583.78642,609.92824 583.3812,610.56801 C 583.37786,610.5733 583.37948,610.58164 583.37613,610.58692 C 582.56182,611.87142 581.67972,613.11717 580.75177,614.30424 C 579.82003,615.49614 578.84007,616.6235 577.80335,617.71167 C 577.79938,617.71586 577.80226,617.72642 577.79828,617.7306 C 576.76512,618.81427 575.6777,619.83908 574.54988,620.81431 C 574.54574,620.8179 574.54896,620.82966 574.54481,620.83323 C 573.98266,621.319 573.40894,621.78015 572.82506,622.23797 C 572.82085,622.24127 572.8242,622.25358 572.81999,622.25689 C 572.23579,622.71464 571.62524,623.1503 571.02049,623.57942 C 571.01632,623.58238 571.01959,623.59538 571.01542,623.59834 C 568.5832,625.32302 565.98478,626.81779 563.26814,628.05183 C 560.54724,629.2878 557.70249,630.26706 554.77298,630.96662 C 553.30814,631.31647 551.8186,631.5927 550.31602,631.80015 C 548.81352,632.00755 547.30119,632.14489 545.77055,632.2044 C 545.0052,632.23417 544.23298,632.24306 543.4624,632.23481 C 540.38019,632.20178 537.25184,631.86402 534.1339,631.19524 C 533.3544,631.02804 532.58057,630.83986 531.80185,630.6312 C 531.02313,630.42254 530.25888,630.1986 529.50022,629.95365 C 526.46565,628.97372 523.58733,627.70282 520.90171,626.1897 C 520.23025,625.81154 519.56594,625.41774 518.918,625.00928 C 517.62228,624.19207 516.38102,623.31776 515.18364,622.38646 C 513.98609,621.45551 512.83423,620.47151 511.74056,619.43612 C 511.19381,618.91823 510.67424,618.37728 510.15452,617.83505 C 509.63479,617.29283 509.12074,616.73321 508.62675,616.16848 C 508.13462,615.60335 507.65894,615.03361 507.19521,614.44657 C 506.26776,613.27249 505.39763,612.06227 504.58795,610.80771 C 504.18567,610.1844 503.80341,609.53724 503.43121,608.89583 C 503.05429,608.24627 502.692,607.60938 502.34665,606.94247 C 502.34439,606.93809 502.35399,606.92792 502.35173,606.92355 C 502.00865,606.26058 501.6746,605.59374 501.36341,604.91486 C 501.0521,604.2362 500.75006,603.54422 500.47133,602.85084 C 500.19269,602.15723 499.93478,601.46265 499.68941,600.75551 C 499.19846,599.3417 498.77688,597.90256 498.42315,596.44181 C 498.06941,594.98106 497.78442,593.51477 497.57346,592.01668 C 497.57262,592.01069 497.57937,592.00375 497.57853,591.99776 C 497.47398,591.25453 497.37277,590.50525 497.30436,589.7546 C 497.30381,589.74846 497.30999,589.74182 497.30943,589.73568 C 497.24077,588.97893 497.19566,588.22936 497.16442,587.46629 C 497.13379,586.71984 497.12774,585.97843 497.13335,585.22744 C 497.13375,585.17365 497.13533,585.11971 497.13593,585.0659 C 497.14343,584.38293 497.16419,583.68104 497.2023,582.9951 C 497.21195,582.82272 497.22753,582.65029 497.23915,582.47775 C 497.27162,581.99294 497.2953,581.51131 497.34335,581.02541 C 497.36744,580.78206 497.38894,580.53844 497.41698,580.29487 C 497.41918,580.27572 497.42995,580.25726 497.43218,580.23811 C 497.50651,579.5983 497.59921,578.96393 497.70109,578.32296 C 497.71866,578.21238 497.7309,578.10175 497.7493,577.99115 C 497.85822,577.33657 497.99522,576.68088 498.13344,576.02578 C 498.14438,575.97392 498.14388,575.92118 498.15501,575.86933 C 498.32129,575.09265 498.50863,574.32172 498.7165,573.54592 C 498.92438,572.77012 499.14762,572.00877 499.39194,571.25304 C 499.63243,570.50442 499.89282,569.76037 500.17118,569.02853 C 500.17349,569.02245 500.17394,569.01568 500.17625,569.00961 C 500.4535,568.28072 500.74856,567.56126 501.0593,566.85347 C 501.06189,566.84756 501.06177,566.84045 501.06437,566.83455 C 501.37538,566.12693 501.70789,565.43261 502.05122,564.74677 C 502.05407,564.74108 502.05343,564.73355 502.05629,564.72785 C 502.39988,564.04216 502.77221,563.37168 503.14694,562.70845 C 503.15004,562.70297 503.14891,562.695 503.15201,562.68953 C 503.52701,562.02645 503.92252,561.37335 504.32747,560.73341 C 504.33078,560.72818 504.32923,560.71972 504.33255,560.71449 C 504.74108,560.06944 505.15504,559.44247 505.59282,558.82164 C 505.92085,558.3565 506.2673,557.90324 506.61115,557.45202 C 506.65019,557.40081 506.69349,557.35312 506.73273,557.3021 C 506.90097,557.08322 507.06239,556.86118 507.23428,556.64566 C 507.49925,556.31371 507.77263,555.99065 508.04612,555.66681 C 508.23354,555.44468 508.41838,555.22501 508.60971,555.00673 C 509.03099,554.52653 509.46503,554.05189 509.90532,553.58974 C 509.90924,553.58563 509.90648,553.57492 509.91039,553.57081 C 510.4287,553.02675 510.95197,552.50495 511.49472,551.98785 C 512.0414,551.46704 512.59361,550.96093 513.16387,550.46818 C 513.7258,549.98224 514.29994,549.52143 514.88362,549.06344 C 514.88764,549.06029 514.88466,549.04769 514.88869,549.04452 C 515.47269,548.5866 516.08362,548.15129 516.68819,547.72199 C 516.6922,547.71914 516.68924,547.70593 516.69326,547.70308 C 517.30213,547.27103 517.925,546.85997 518.55351,546.45766 C 520.43921,545.25061 522.3997,544.17664 524.44054,543.24958 C 527.16144,542.01361 530.00619,541.03435 532.9357,540.33479 C 534.40054,539.98494 535.89008,539.70871 537.39266,539.50127 C 538.89515,539.29387 540.40749,539.15652 541.93813,539.09701 C 542.70348,539.06724 543.4757,539.05835 544.24628,539.0666 C 547.32848,539.09963 550.45684,539.43739 553.57478,540.10617 C 554.35427,540.27337 555.12811,540.46155 555.90683,540.67021 z"
           style="opacity:1;fill:#c0c0c0;fill-opacity:1;stroke:none;stroke-width:0;stroke-miterlimit:4;stroke-opacity:1" />
        <path
           id="path3398"
           d="M 571.60739,482.03694 C 514.19787,466.65412 455.17556,500.59894 439.85044,557.79308 C 424.52531,614.98721 458.67281,673.87655 516.0823,689.25938 C 573.49179,704.64222 632.52805,670.72138 647.85317,613.52725 C 663.1783,556.33311 629.0169,497.41978 571.60739,482.03694 z M 555.91632,540.67275 C 556.69504,540.88141 557.4593,541.10536 558.21794,541.3503 C 561.25253,542.33023 564.13084,543.60113 566.81646,545.11426 C 567.48793,545.49241 568.15224,545.88622 568.80017,546.29467 C 570.09589,547.11188 571.33717,547.98619 572.53454,548.91751 C 574.33085,550.31392 576.00418,551.84289 577.56365,553.4689 C 578.6031,554.55335 579.59572,555.68283 580.52296,556.85738 C 581.91413,558.6185 583.18288,560.4764 584.30595,562.41321 C 586.55143,566.28827 588.2344,570.47866 589.29503,574.86214 C 589.64875,576.32289 589.93376,577.78919 590.14471,579.28727 C 590.8853,584.5373 590.72849,589.99177 589.56317,595.43462 C 589.39792,596.20496 589.20786,596.98854 589.00168,597.75804 C 588.58593,599.30963 588.10614,600.80547 587.54699,602.27543 C 587.5447,602.28148 587.54422,602.28831 587.54193,602.29435 C 587.26437,603.02307 586.96991,603.74287 586.65887,604.4505 C 586.65628,604.4564 586.6564,604.46351 586.65381,604.46941 C 586.34251,605.17685 586.01057,605.87151 585.66696,606.55718 C 585.66409,606.56292 585.66476,606.57037 585.66189,606.57611 C 585.318,607.26162 584.94625,607.93245 584.57123,608.59551 C 584.56813,608.60103 584.56929,608.60892 584.56616,608.61443 C 584.19088,609.27733 583.79593,609.93079 583.3907,610.57056 C 583.38735,610.57584 583.38897,610.58418 583.38563,610.58947 C 581.75368,613.16368 579.88207,615.54227 577.81285,617.71422 C 577.80887,617.7184 577.81176,617.72897 577.80778,617.73314 C 576.77461,618.81681 575.68719,619.84162 574.55939,620.81686 C 574.55524,620.82045 574.55846,620.8322 574.55432,620.83578 C 573.99216,621.32155 573.41843,621.7827 572.83456,622.24051 C 572.83035,622.24381 572.8337,622.25613 572.82949,622.25943 C 572.24529,622.71719 571.63474,623.15284 571.02999,623.58196 C 571.02582,623.58492 571.02909,623.59792 571.02492,623.60088 C 569.81082,624.4618 568.55745,625.25937 567.26771,626.00077 C 566.61673,626.37525 565.95946,626.73008 565.29101,627.07305 C 564.62678,627.41387 563.95791,627.74536 563.27763,628.05438 C 560.55672,629.29034 557.71199,630.2696 554.78248,630.96917 C 553.31764,631.31901 551.8281,631.59524 550.32553,631.8027 C 548.82303,632.0101 547.31068,632.14743 545.78004,632.20694 C 545.01469,632.23671 544.24248,632.2456 543.47189,632.23736 C 540.38969,632.20433 537.26134,631.86656 534.14339,631.19778 C 533.36391,631.03059 532.59007,630.8424 531.81135,630.63374 C 531.03263,630.42509 530.26837,630.20114 529.50971,629.95619 C 526.47514,628.97626 523.59682,627.70537 520.9112,626.19224 C 520.23974,625.81409 519.57543,625.42028 518.92751,625.01183 C 517.63178,624.19461 516.3905,623.32031 515.19313,622.389 C 513.39681,620.99258 511.72349,619.46361 510.16401,617.83759 C 509.12457,616.75314 508.13194,615.62367 507.20471,614.44912 C 505.34676,612.09708 503.73537,609.5818 502.36122,606.92609 C 502.01815,606.26313 501.6841,605.59629 501.3729,604.9174 C 500.12767,602.20279 499.1401,599.36585 498.43264,596.44435 C 498.07892,594.98361 497.79391,593.51731 497.58296,592.01923 C 497.58212,592.01324 497.58886,592.0063 497.58803,592.0003 C 497.48348,591.25707 497.38226,590.50779 497.31387,589.75714 C 497.31331,589.75101 497.31949,589.74436 497.31893,589.73823 C 497.25027,588.98147 497.20515,588.2319 497.17391,587.46884 C 497.01713,583.64803 497.3301,579.76141 498.1645,575.87187 C 498.33079,575.0952 498.51812,574.32426 498.726,573.54846 C 499.14347,571.99045 499.62371,570.48784 500.18575,569.01215 C 500.463,568.28326 500.75805,567.5638 501.06878,566.85601 C 501.07139,566.8501 501.07126,566.843 501.07385,566.83709 C 501.38487,566.12947 501.7174,565.43516 502.06071,564.74932 C 502.06356,564.74362 502.06292,564.7361 502.06578,564.73039 C 502.40938,564.04471 502.7817,563.37423 503.15643,562.71099 C 503.15953,562.70551 503.1584,562.69755 503.1615,562.69207 C 503.5365,562.029 503.93201,561.3759 504.33697,560.73595 C 504.34028,560.73072 504.33872,560.72226 504.34204,560.71703 C 504.75058,560.07199 505.16454,559.44502 505.60233,558.82419 C 506.91909,556.95696 508.36034,555.20913 509.91989,553.57336 C 510.4382,553.0293 510.96147,552.50749 511.50422,551.9904 C 512.0509,551.46958 512.6031,550.96348 513.17336,550.47072 C 513.73531,549.98478 514.30945,549.52398 514.89312,549.06599 C 514.89714,549.06283 514.89415,549.05023 514.89819,549.04707 C 515.48219,548.58915 516.09312,548.15383 516.69768,547.72454 C 516.7017,547.72169 516.69874,547.70847 516.70275,547.70562 C 517.31162,547.27357 517.93449,546.86251 518.56301,546.46021 C 519.19157,546.05785 519.81295,545.67766 520.45995,545.30573 C 521.11094,544.93125 521.76821,544.57643 522.43664,544.23345 C 523.10089,543.89263 523.76975,543.56114 524.45003,543.25212 C 527.17095,542.01616 530.01568,541.03689 532.94519,540.33733 C 534.41003,539.98749 535.89957,539.71126 537.40215,539.50381 C 538.90464,539.29641 540.41699,539.15906 541.94763,539.09956 C 542.71298,539.06979 543.48519,539.0609 544.25576,539.06914 C 547.33798,539.10217 550.46632,539.43993 553.58427,540.10872 C 554.36376,540.27591 555.1376,540.4641 555.91632,540.67275 z"
           style="opacity:0.79393939;fill:#a9a9a9;fill-opacity:1;stroke:none;stroke-width:0;stroke-miterlimit:4;stroke-opacity:1" />
        <path
           id="path3400"
           d="M 567.99291,495.52637 C 518.05909,482.14663 466.72018,511.67468 453.39065,561.42117 C 440.06112,611.16766 469.76297,662.39024 519.69678,675.76996 C 569.63058,689.1497 620.98343,659.64564 634.31296,609.89916 C 647.64249,560.15267 617.92672,508.90609 567.99291,495.52637 z M 555.91632,540.67275 C 580.83531,547.34978 595.65365,572.93254 589.00168,597.75804 C 582.34971,622.58354 556.73033,637.31077 531.81135,630.63374 C 506.89236,623.95672 492.07403,598.37396 498.726,573.54846 C 505.37796,548.72296 530.99734,533.99573 555.91632,540.67275 z"
           style="opacity:0.79393939;fill:url(#radialGradient2422);fill-opacity:1;stroke:none;stroke-width:0;stroke-miterlimit:4;stroke-opacity:1" />
        <path
           transform="matrix(0.5086222,0.1362849,-0.1355832,0.5060035,398.04098,338.67174)"
           style="opacity:0.58787878;fill:#696969;fill-opacity:1;stroke:none;stroke-width:0;stroke-miterlimit:4;stroke-dasharray:none;stroke-opacity:1;filter:url(#filter3340)"
           d="M 388.875,274.48438 C 328.776,274.48438 279.99999,323.24992 280,383.34026 C 280,443.43061 328.77602,492.23438 388.875,492.23438 C 448.974,492.23438 497.75001,443.46883 497.75,383.37849 L 497.75,383.34026 C 497.75,323.24992 448.97401,274.48438 388.875,274.48438 z M 388.875,299.13748 C 435.44961,299.13749 473.2493,336.87746 473.2493,383.37849 C 473.24928,429.8795 435.4496,467.58127 388.875,467.58127 C 342.30041,467.58127 304.5007,429.84129 304.5007,383.34026 C 304.50069,336.83923 342.3004,299.13748 388.875,299.13748 z"
           id="path3402" />
        <path
           id="path3404"
           d="M 558.29451,531.75925 C 528.48159,523.77091 497.81777,541.4258 489.84794,571.16959 C 481.87812,600.9134 499.60125,631.55381 529.41417,639.54216 C 559.22709,647.5305 589.89091,629.87562 597.86074,600.13182 L 597.86581,600.11289 C 605.83563,570.3691 588.10744,539.74761 558.29451,531.75925 z M 555.02475,543.96216 C 578.12872,550.15286 591.87428,573.8579 585.70682,596.87518 C 579.53936,619.89247 555.78789,633.52993 532.68393,627.33925 C 509.57997,621.14856 495.83439,597.44352 502.00186,574.42623 C 508.16932,551.40893 531.92079,537.77147 555.02475,543.96216 z"
           style="opacity:1;fill:#c0c0c0;fill-opacity:1;stroke:none;stroke-width:0;stroke-miterlimit:4;stroke-dasharray:none;stroke-opacity:1" />
      </g>
    </g>
  </g>
</svg>
